<svg width="145" height="112" viewBox="0 0 145 112" fill="none" xmlns="http://www.w3.org/2000/svg">
<g clip-path="url(#clip0_30_585)">
<mask id="mask0_30_585" style="mask-type:luminance" maskUnits="userSpaceOnUse" x="0" y="0" width="145" height="112">
<path d="M145 0H0V112H145V0Z" fill="white"/>
</mask>
<g mask="url(#mask0_30_585)">
<path fill-rule="evenodd" clip-rule="evenodd" d="M0.706991 47.3197C7.28598 29.6078 37.2624 39.3765 52.8663 28.681C60.6301 23.3594 56.4315 8.74634 64.3675 3.68393C72.6062 -1.57153 83.9611 -0.679777 92.9788 3.09312C101.664 6.72695 104.379 17.3217 111.543 23.4214C122.222 32.5137 146.536 33.4049 144.923 47.3197C143.217 62.048 117.64 57.7784 106.434 67.5146C99.1934 73.8057 100.325 85.8212 93.2085 92.2515C82.9496 101.521 71.1845 114.463 57.6461 111.596C44.3381 108.778 42.9273 89.8661 33.9174 79.6952C23.4106 67.8344 -4.80644 62.1629 0.706991 47.3197Z" fill="#FED7AA"/>
<path d="M125.069 5.77554C125.212 4.73902 123.743 3.88646 122.637 3.79836C122.115 3.75689 121.563 3.83722 121.073 3.66361C119.992 3.28786 119.559 1.89891 118.503 1.4558C117.722 1.1241 116.807 1.41951 116.041 1.80303C115.274 2.18655 114.519 2.66854 113.666 2.72296C112.923 2.7696 112.116 2.49492 111.467 2.8577C110.982 3.11684 110.729 3.68175 110.281 4.01085C109.832 4.33995 109.275 4.39955 108.733 4.42805C108.189 4.41458 107.647 4.50247 107.135 4.68719C106.642 4.91263 106.233 5.4309 106.335 5.96213L125.069 5.77554Z" fill="#EAEAEA"/>
<path d="M49.3748 6.98295C49.599 5.36077 47.2898 4.02883 45.5697 3.88889C44.7462 3.82152 43.8886 3.9485 43.1068 3.6764C41.4154 3.09076 40.7377 0.916635 39.0879 0.224749C37.8526 -0.293518 36.4322 0.16774 35.236 0.766337C34.0397 1.36493 32.8564 2.11902 31.5168 2.19416C30.3544 2.26931 29.0904 1.83915 28.0739 2.40406C27.3156 2.82385 26.9194 3.69973 26.2209 4.21799C25.5224 4.73627 24.6572 4.82436 23.7971 4.87101C22.9371 4.91766 22.0718 4.92543 21.2978 5.27784C20.5236 5.63028 19.8851 6.44136 20.0467 7.27059L49.3748 6.98295Z" fill="#F5F5F5"/>
<path d="M109.238 16.1871C109.457 14.6039 107.21 13.303 105.522 13.1656C104.716 13.1009 103.88 13.2227 103.116 12.9584C101.464 12.3857 100.804 10.2634 99.191 9.58966C97.9843 9.07138 96.5848 9.53523 95.4276 10.1079C94.2704 10.6806 93.1028 11.4295 91.7971 11.5124C90.6607 11.585 89.428 11.1652 88.435 11.7171C87.6948 12.1292 87.3066 12.9766 86.6236 13.4766C85.9408 13.9768 85.086 14.0701 84.2572 14.1141C83.4285 14.1582 82.5709 14.1659 81.8178 14.5106C81.0645 14.8553 80.4391 15.6482 80.5954 16.4567L109.238 16.1871Z" fill="#F5F5F5"/>
<path d="M106.264 111.39C100.763 108.866 98.516 102.761 97.6846 97.0602C97.5465 96.1093 97.2624 95.1298 97.5648 94.2098C97.867 93.2899 98.8209 92.5435 99.7461 92.7898C100.512 92.9945 100.968 93.7564 101.485 94.3627C102.173 95.1686 103.077 95.765 104.091 96.0833C104.753 96.288 105.537 96.3425 106.077 95.9097C106.817 95.3138 106.71 94.1684 106.533 93.2277L105.55 87.9725C105.376 87.0318 105.198 86.073 105.331 85.122C105.464 84.1709 105.965 83.2304 106.82 82.8209C107.674 82.4115 108.881 82.7276 109.238 83.6139C109.343 83.9969 109.423 84.3864 109.475 84.7799C109.572 85.1661 109.832 85.5574 110.226 85.6066C110.619 85.6559 110.953 85.3163 111.188 84.9899C111.993 83.8652 112.433 82.5229 112.835 81.1962C113.236 79.8694 113.617 78.5167 114.31 77.3092C115.003 76.1016 116.087 75.0755 117.437 74.7566C118.787 74.4379 120.371 75.0158 120.953 76.2752C121.534 77.5346 121.001 79.0247 120.349 80.2504C119.379 82.0673 118.15 83.7352 116.7 85.2023C116.409 85.4375 116.201 85.7588 116.106 86.1196C116.014 86.7831 116.723 87.2987 117.383 87.3946C118.131 87.5034 118.881 87.2936 119.634 87.2469C120.387 87.2003 121.245 87.3817 121.649 88.0243C122.21 88.9157 121.584 90.0688 120.906 90.8747C119.55 92.4819 117.927 93.845 116.106 94.9044C115.454 95.2827 114.763 95.6351 114.281 96.2207C113.799 96.8063 113.622 97.7133 114.081 98.3145C114.539 98.9158 115.449 98.9753 116.166 98.7084C116.882 98.4415 117.453 97.931 118.099 97.5501C119.311 96.8297 121.008 96.6198 122.043 97.5889C122.723 98.2264 122.955 99.2396 122.825 100.165C122.665 101.087 122.32 101.969 121.811 102.756C120.167 105.56 117.852 107.993 115.034 109.571C112.217 111.149 109.462 111.929 106.267 111.385" fill="#EAEAEA"/>
<path d="M107.096 107.576C107.485 104.32 108.062 101.09 108.824 97.8999L109.407 95.3863C109.6 94.5623 109.793 93.7434 110.03 92.9557C110.488 91.443 111.03 89.9567 111.654 88.5037C112.24 87.1122 112.848 85.8139 113.424 84.6038C114 83.3936 114.565 82.2716 115.12 81.2791C115.992 79.7017 116.988 78.1956 118.099 76.7754C118.49 76.2727 118.806 75.8918 119.025 75.6378L119.285 75.3501C119.312 75.3164 119.341 75.2852 119.374 75.2568C119.352 75.2946 119.327 75.3301 119.298 75.3631L119.061 75.6611C118.853 75.9203 118.54 76.3089 118.162 76.8168C117.073 78.25 116.094 79.7623 115.232 81.3413C114.685 82.3389 114.133 83.4558 113.559 84.6685C112.986 85.8813 112.389 87.1796 111.808 88.5685C111.191 90.0171 110.654 91.4981 110.2 93.0049C109.965 93.7822 109.775 94.5985 109.582 95.4252L108.998 97.9362C108.238 101.12 107.658 104.343 107.26 107.591" fill="#E0E0E0"/>
<path d="M110.077 92.94C110.009 92.8176 109.954 92.6881 109.913 92.554C109.817 92.2948 109.689 91.9346 109.538 91.4785C109.235 90.5665 108.86 89.2914 108.451 87.8844C108.042 86.4773 107.651 85.2101 107.335 84.3058C107.179 83.8523 107.049 83.4869 106.955 83.2356C106.898 83.1076 106.855 82.9737 106.827 82.8364C106.904 82.9535 106.968 83.0787 107.017 83.2096C107.129 83.4533 107.278 83.8134 107.453 84.2643C107.799 85.1635 108.214 86.4281 108.62 87.8377L109.663 91.4448L109.983 92.5359C110.029 92.6668 110.061 92.8023 110.077 92.94Z" fill="#E0E0E0"/>
<path d="M121.834 88.5088C121.681 88.5717 121.522 88.6203 121.36 88.6539C121.052 88.7368 120.606 88.856 120.056 89.0192C118.964 89.3379 117.471 89.8304 115.845 90.4445C114.218 91.0586 112.775 91.6832 111.743 92.1625C111.221 92.3984 110.81 92.6005 110.523 92.7404C110.378 92.8209 110.226 92.8876 110.069 92.9399C110.202 92.8406 110.343 92.7538 110.492 92.6808C110.77 92.5228 111.177 92.3025 111.688 92.0511C112.709 91.5329 114.151 90.9006 115.78 90.2786C117.168 89.7466 118.584 89.2856 120.02 88.8974C120.573 88.7497 121.023 88.6383 121.323 88.5865C121.491 88.5439 121.662 88.5178 121.834 88.5088Z" fill="#E0E0E0"/>
<path d="M107.205 107.327C107.163 107.288 107.126 107.243 107.096 107.195L106.809 106.793C106.549 106.443 106.218 105.93 105.798 105.29C104.961 104.01 103.862 102.204 102.671 100.195C101.479 98.1872 100.403 96.3707 99.5952 95.0751L98.6334 93.541L98.3728 93.1211C98.339 93.0741 98.3118 93.0227 98.292 92.9683C98.3343 93.0073 98.3711 93.0518 98.4015 93.1004L98.6882 93.4995C98.9488 93.8494 99.2798 94.3624 99.6993 95.0025C100.536 96.2826 101.636 98.0887 102.827 100.1C104.018 102.11 105.097 103.922 105.905 105.217L106.867 106.749L107.127 107.169C107.16 107.218 107.187 107.271 107.205 107.327Z" fill="#E0E0E0"/>
<path d="M122.436 99.2603C122.391 99.2978 122.341 99.3291 122.287 99.3535L121.846 99.5946L120.216 100.46C118.839 101.193 116.95 102.225 114.862 103.37C112.775 104.516 110.875 105.531 109.483 106.236C108.787 106.589 108.222 106.868 107.825 107.052L107.369 107.262C107.318 107.29 107.262 107.311 107.205 107.324C107.25 107.286 107.3 107.254 107.354 107.229L107.794 106.988L109.423 106.122C110.799 105.391 112.689 104.357 114.776 103.212C116.864 102.067 118.764 101.051 120.156 100.346C120.852 99.9936 121.417 99.7137 121.813 99.5298L122.269 99.3198C122.322 99.2924 122.377 99.2724 122.436 99.2603Z" fill="#E0E0E0"/>
<path d="M130.547 46.3506L125.546 42.2666L125.517 44.4744L111.565 44.3035L111.519 47.9313L125.473 48.1023L125.446 50.2324L130.547 46.3506Z" fill="#EAEAEA"/>
<path d="M123.111 52.2278L119.882 49.5898L119.863 51.0151L110.856 50.9062L110.825 53.2462L119.834 53.3576L119.817 54.7336L123.111 52.2278Z" fill="#EAEAEA"/>
<path d="M17.006 19.3097C17.006 19.3097 14.0974 20.2089 16.8444 26.4151C19.5914 32.6213 21.5617 35.7439 21.5617 35.7439C21.5617 35.7439 22.0308 37.1744 20.832 37.3246C19.6331 37.4749 17.0478 36.91 16.4378 38.3223C15.8045 39.7864 16.8158 41.2608 18.958 42.6239C21.1004 43.987 25.6874 47.1406 26.0992 47.4282C26.511 47.7158 26.881 48.387 26.0992 48.6177C25.3173 48.8482 19.3933 49.1359 19.6931 51.9008C19.9928 54.6658 26.5917 57.506 27.3085 57.8273C28.0252 58.1485 28.1816 58.4673 28.0904 58.8638C27.9992 59.2603 26.0054 59.167 24.3374 59.3121C22.6694 59.4571 20.7433 59.921 21.051 61.5095C21.3584 63.098 25.1609 66.617 34.804 68.1149L39.3154 68.532L41.9973 64.8627C47.2541 56.687 47.1212 51.5225 46.1282 50.2424C45.1352 48.9623 43.522 50.0843 42.2944 51.2375C41.0669 52.3907 39.8237 53.9377 39.4718 53.7355C39.12 53.5334 38.9819 53.2173 39.2112 52.4606C39.4405 51.7039 41.6846 44.925 39.7899 42.8727C37.895 40.8203 33.7746 45.0287 33.071 45.4641C32.3672 45.8993 32.1118 45.1712 32.1691 44.6866C32.2265 44.202 32.8833 38.6773 33.2742 36.1766C33.6651 33.6761 33.2247 31.9476 31.7105 31.4501C30.2405 30.9707 28.9531 33.264 28.0461 34.0621C27.1392 34.8603 26.3599 33.549 26.3599 33.549C26.3599 33.549 25.3173 30.0222 22.4634 23.8652C19.6097 17.7082 16.9435 19.3304 16.9435 19.3304" fill="#EAEAEA"/>
<path d="M39.4871 69.5921C37.4021 65.0625 33.8419 56.949 30.7457 49.999C27.6494 43.049 24.8425 36.7651 22.7837 32.2251L20.3416 26.8506L19.6769 25.3891L19.5101 24.9979C19.4737 24.9123 19.458 24.8657 19.458 24.8657C19.458 24.8657 19.4815 24.9072 19.5232 24.9927L19.7056 25.3684L20.3937 26.8195C20.9879 28.0789 21.8376 29.9111 22.8774 32.1759C24.9624 36.7056 27.7823 42.9868 30.876 49.9343C33.9696 56.8816 37.5219 65.0028 39.5783 69.5429" fill="#E0E0E0"/>
<path d="M20.0215 39.25C20.1285 39.2738 20.2325 39.3095 20.3316 39.3563C20.5271 39.4315 20.8086 39.548 21.1551 39.6984C21.8458 39.9963 22.7893 40.4317 23.8213 40.9318L26.4615 42.2275L27.2642 42.6136C27.366 42.6537 27.4631 42.705 27.5536 42.7664C27.4466 42.7436 27.3425 42.7088 27.2433 42.6628C27.0479 42.5877 26.7664 42.4685 26.4225 42.3182C25.7344 42.0125 24.7961 41.5667 23.764 41.0665L21.1161 39.7994L20.3108 39.4185C20.2082 39.3736 20.1111 39.317 20.0215 39.25Z" fill="#E0E0E0"/>
<path d="M29.8334 38.1322C30.8777 35.7122 31.6952 33.738 31.6595 33.7227C31.6238 33.7075 30.7484 35.657 29.7041 38.0769C28.6599 40.497 27.8424 42.4711 27.8781 42.4864C27.9138 42.5016 28.7893 40.5521 29.8334 38.1322Z" fill="#E0E0E0"/>
<path d="M32.1484 53.3652C32.2057 53.2719 32.2731 53.185 32.349 53.106L32.9277 52.409C33.4151 51.8181 34.0848 51.0018 34.7885 50.0768C35.4922 49.1517 36.1073 48.2862 36.5425 47.659L37.0638 46.9153C37.1219 46.822 37.1901 46.735 37.2671 46.6562C37.2251 46.7593 37.1718 46.8575 37.108 46.949C36.9986 47.133 36.8475 47.3974 36.6259 47.7264C36.2089 48.369 35.6095 49.2424 34.9006 50.1727C34.1917 51.1029 33.5114 51.9141 33.0032 52.4893C32.7426 52.7743 32.5393 53.0076 32.3907 53.1605C32.3174 53.2368 32.2362 53.3055 32.1484 53.3652Z" fill="#E0E0E0"/>
<path d="M24.3945 51.9944C24.4976 51.9899 24.6009 51.9978 24.7021 52.0177L25.5361 52.1317C26.2397 52.2328 27.2067 52.3908 28.2753 52.5592C29.3438 52.7277 30.3108 52.9013 31.0092 53.0283L31.8354 53.1863C31.938 53.2004 32.0387 53.2265 32.1351 53.2641C32.0339 53.2689 31.9324 53.262 31.8328 53.2434L30.9987 53.1294C30.2951 53.0283 29.3281 52.8702 28.2597 52.7017C27.1911 52.5334 26.2242 52.3597 25.5257 52.2328L24.6995 52.0747C24.5949 52.0602 24.4926 52.0333 24.3945 51.9944Z" fill="#E0E0E0"/>
<path d="M26.9355 62.0772C27.0675 62.0764 27.1992 62.0876 27.3291 62.1109L28.3977 62.2534C29.2994 62.3804 30.5426 62.5618 31.9135 62.7717C33.2844 62.9816 34.5198 63.1811 35.4242 63.334L36.4848 63.5206C36.6159 63.5381 36.745 63.5675 36.8706 63.6087C36.7386 63.6096 36.6069 63.5984 36.477 63.575L35.4085 63.4325C34.5067 63.3055 33.2635 63.1242 31.8926 62.9142C30.5217 62.7044 29.2863 62.5048 28.3821 62.3519L27.3213 62.1654C27.1902 62.148 27.0611 62.1184 26.9355 62.0772Z" fill="#E0E0E0"/>
<path d="M36.6436 63.5049C36.715 63.3831 36.7969 63.2679 36.8886 63.1603L37.5896 62.2481C38.1813 61.4707 38.9918 60.4108 39.8545 59.2085C40.7171 58.0061 41.4729 56.897 42.0124 56.0988L42.6536 55.1453C42.7301 55.0239 42.8173 54.9094 42.9141 54.8032C42.8573 54.9324 42.7894 55.0564 42.7109 55.1738C42.5727 55.4069 42.3669 55.7439 42.1089 56.1533C41.5876 56.9747 40.8475 58.0942 39.9822 59.2966C39.1169 60.499 38.2933 61.5615 37.6808 62.3154C37.3733 62.6912 37.1231 62.9945 36.9459 63.1992C36.8543 63.3097 36.7532 63.4121 36.6436 63.5049Z" fill="#E0E0E0"/>
<path d="M104.151 100.652C104.412 100.766 104.648 100.932 104.844 101.139C105.039 101.346 105.191 101.59 105.289 101.857C105.483 102.392 105.551 102.963 105.488 103.528C105.396 104.619 104.81 105.739 104.169 106.638C103.223 105.86 102.967 104.477 102.881 103.764C102.746 102.637 103.191 100.522 104.153 100.654" fill="#F97316"/>
<path d="M105.295 108.393C105.223 108.084 105.232 107.763 105.324 107.459C105.415 107.156 105.585 106.882 105.816 106.664C106.053 106.452 106.331 106.29 106.632 106.186C106.933 106.082 107.252 106.038 107.57 106.058C107.716 106.052 107.862 106.078 107.997 106.134C108.132 106.19 108.253 106.275 108.352 106.382C108.426 106.497 108.469 106.629 108.475 106.766C108.481 106.902 108.452 107.038 108.388 107.159C108.256 107.4 108.062 107.603 107.825 107.745C107.044 108.263 106.189 108.631 105.277 108.39" fill="#F97316"/>
<path d="M104.216 111.764C104.218 111.688 104.226 111.612 104.242 111.538L104.336 110.929C104.418 110.253 104.61 109.594 104.904 108.978C105.21 108.363 105.675 107.84 106.251 107.462C106.427 107.354 106.615 107.267 106.812 107.203C106.865 107.185 106.919 107.169 106.973 107.156C106.992 107.153 107.012 107.153 107.031 107.156C106.768 107.254 106.517 107.378 106.28 107.527C105.725 107.912 105.277 108.429 104.977 109.032C104.689 109.641 104.493 110.289 104.396 110.955C104.349 111.214 104.31 111.416 104.278 111.559C104.264 111.629 104.243 111.697 104.216 111.764Z" fill="#263238"/>
<path d="M103.955 102.292C103.963 102.325 103.967 102.358 103.968 102.391L103.994 102.671C104.015 102.914 104.041 103.267 104.067 103.707C104.122 104.578 104.182 105.78 104.218 107.115C104.255 108.45 104.26 109.652 104.25 110.525C104.25 110.961 104.25 111.303 104.231 111.562V111.842C104.235 111.874 104.235 111.907 104.231 111.94C104.228 111.907 104.228 111.874 104.231 111.842V111.562V110.525C104.231 109.652 104.21 108.452 104.177 107.118C104.143 105.783 104.091 104.583 104.049 103.713L103.999 102.676V102.396C103.98 102.364 103.966 102.329 103.955 102.292Z" fill="#263238"/>
<path d="M103.721 109.102C103.589 108.446 103.302 107.831 102.883 107.307C102.464 106.784 101.926 106.367 101.313 106.091C101 105.954 100.596 105.871 100.348 106.107C100.101 106.343 100.171 106.749 100.307 107.063C100.597 107.711 101.074 108.258 101.677 108.637C102.28 109.016 102.982 109.21 103.695 109.193" fill="#F97316"/>
<path d="M101.495 107.12C101.564 107.14 101.63 107.166 101.693 107.198C101.77 107.23 101.845 107.268 101.917 107.309C102.001 107.359 102.102 107.405 102.204 107.475C102.318 107.546 102.427 107.623 102.533 107.706C102.655 107.799 102.773 107.898 102.884 108.004C103.14 108.248 103.368 108.52 103.562 108.815C103.751 109.113 103.905 109.432 104.021 109.766C104.07 109.911 104.111 110.059 104.143 110.209C104.174 110.34 104.196 110.472 104.211 110.605C104.225 110.715 104.234 110.824 104.237 110.935C104.243 111.021 104.243 111.107 104.237 111.194C104.238 111.265 104.232 111.336 104.219 111.406C104.201 111.406 104.219 111.103 104.154 110.629C104.136 110.498 104.11 110.368 104.078 110.24C104.043 110.093 104.001 109.947 103.95 109.805C103.833 109.478 103.68 109.165 103.494 108.872C103.303 108.582 103.081 108.314 102.832 108.071C102.724 107.965 102.61 107.865 102.491 107.771C102.381 107.677 102.272 107.605 102.17 107.535C101.769 107.252 101.487 107.143 101.495 107.12Z" fill="#263238"/>
<path d="M25.956 105.329C26.1957 104.402 25.5858 103.471 24.9004 102.8C24.215 102.129 23.3966 101.525 23.0395 100.636C22.461 99.1957 23.2376 97.33 22.2576 96.1276C21.6686 95.4305 20.6262 95.1947 20.118 94.4458C19.8805 94.0283 19.7231 93.5705 19.654 93.0958C19.1058 90.7022 17.9213 88.4989 16.2242 86.7158C16.1093 88.8485 16.5737 90.9725 17.569 92.8651C17.9678 93.6218 18.4578 94.3577 18.5907 95.1973C18.8043 96.5655 18.0355 97.9778 18.3744 99.3227C18.7601 100.859 20.4984 101.891 20.5818 103.469C20.6522 104.806 19.4794 105.982 19.5654 107.32C19.636 107.888 19.8414 108.432 20.1648 108.905C21.2074 110.626 22.7346 111.81 25.0516 111.771L27.8897 111.87L25.956 105.329Z" fill="#F97316"/>
<g opacity="0.3">
<path opacity="0.3" d="M25.956 105.329C26.1957 104.402 25.5858 103.471 24.9004 102.8C24.215 102.129 23.3966 101.525 23.0395 100.636C22.461 99.1957 23.2376 97.33 22.2576 96.1276C21.6686 95.4305 20.6262 95.1947 20.118 94.4458C19.8805 94.0283 19.7231 93.5705 19.654 93.0958C19.1058 90.7022 17.9213 88.4989 16.2242 86.7158C16.1093 88.8485 16.5737 90.9725 17.569 92.8651C17.9678 93.6218 18.4578 94.3577 18.5907 95.1973C18.8043 96.5655 18.0355 97.9778 18.3744 99.3227C18.7601 100.859 20.4984 101.891 20.5818 103.469C20.6522 104.806 19.4794 105.982 19.5654 107.32C19.636 107.888 19.8414 108.432 20.1648 108.905C21.2074 110.626 22.7346 111.81 25.0516 111.771L27.8897 111.87L25.956 105.329Z" fill="#F97316"/>
</g>
<path d="M28.4655 111.945C28.7251 111.985 28.9896 111.98 29.2473 111.93C29.5619 111.884 29.8709 111.806 30.1699 111.699C30.5828 111.557 30.9686 111.346 31.3115 111.077C31.5176 110.912 31.6789 110.698 31.7806 110.455C31.8661 110.182 31.9109 109.899 31.9135 109.613C31.9181 109.308 31.9399 109.003 31.9787 108.701C32.034 108.379 32.1518 108.071 32.3253 107.794C32.6589 107.208 33.2167 106.656 33.3965 105.863C33.5764 105.07 33.4512 104.239 33.3184 103.389C33.1855 102.539 33.0577 101.619 33.3834 100.738C33.7093 99.8565 34.3113 99.0585 34.6214 98.0634C34.9316 97.0683 34.7856 95.9903 34.8534 94.9123C34.8751 94.3752 35.0008 93.8474 35.2235 93.3576C35.4528 92.8574 35.7708 92.3858 36.021 91.8597C36.5241 90.7973 36.6126 89.5923 36.7508 88.4106L36.954 86.5967C36.9954 85.9828 37.1011 85.3748 37.2694 84.7828C37.4615 84.1879 37.6886 83.6046 37.9496 83.0363C38.0845 82.7419 38.1943 82.4367 38.2781 82.1241C38.3258 81.802 38.3562 81.4777 38.3693 81.1523C38.4002 80.5001 38.3749 79.8464 38.2937 79.1985C38.2155 78.5481 38.0982 77.9029 38.033 77.2498V77.1384L38.0174 77.0088L37.9001 77.0659C37.2985 77.3708 36.7758 77.8098 36.3728 78.3485C35.9796 78.875 35.6638 79.4543 35.4346 80.0691C34.9602 81.2819 34.7909 82.5517 34.5511 83.7644C34.3113 84.9771 34.009 86.1692 33.3861 87.1772C33.0759 87.6799 32.6981 88.1386 32.3696 88.6283C32.0179 89.1062 31.7775 89.6559 31.666 90.2375C31.4991 91.4321 32.1586 92.4791 32.0231 93.5363C31.9566 94.0558 31.7788 94.5551 31.5018 95.0004C31.2411 95.4514 30.9414 95.8685 30.6548 96.2961C30.3622 96.7042 30.1075 97.1379 29.8937 97.5918C29.6938 98.0391 29.5756 98.5182 29.5445 99.0067C29.4741 99.9577 29.6122 100.862 29.5445 101.715C29.4676 102.53 29.2294 103.323 28.8434 104.047C28.4993 104.741 28.1188 105.368 27.8009 105.977C27.6425 106.27 27.4989 106.57 27.3708 106.877C27.2528 107.164 27.1654 107.463 27.1102 107.768C27.0256 108.301 27.0185 108.844 27.0893 109.38C27.1641 110.126 27.4456 110.838 27.9025 111.435C27.9711 111.528 28.0479 111.614 28.1319 111.694C28.1876 111.753 28.2497 111.806 28.3169 111.852C28.4238 111.93 28.4785 111.966 28.4785 111.966C28.2732 111.799 28.087 111.611 27.9234 111.404C27.4817 110.807 27.2113 110.102 27.1415 109.364C27.0777 108.836 27.0899 108.301 27.178 107.776C27.2341 107.477 27.3215 107.185 27.4387 106.905C27.5585 106.615 27.6993 106.319 27.8713 106.019C28.1945 105.415 28.5802 104.791 28.9294 104.091C29.3243 103.359 29.5704 102.557 29.6539 101.73C29.7295 100.859 29.5966 99.9525 29.6696 99.0248C29.6998 98.5523 29.8146 98.089 30.0084 97.6566C30.2201 97.2098 30.4722 96.7831 30.7616 96.3816C31.0483 95.9644 31.3558 95.5447 31.6191 95.0859C31.9072 94.6225 32.0921 94.1028 32.1611 93.5623C32.2966 92.435 31.6399 91.3804 31.8119 90.2713C31.9212 89.7145 32.1536 89.1887 32.4921 88.732C32.8153 88.25 33.1959 87.7914 33.5138 87.2757C34.1576 86.2391 34.4703 85.0238 34.7075 83.8059C34.9446 82.5879 35.1192 81.3285 35.5857 80.1417C35.8094 79.5434 36.1175 78.9799 36.5006 78.4678C36.8872 77.9516 37.3884 77.5313 37.9653 77.2395L37.8349 77.1669V77.2809C37.9053 77.9417 38.0252 78.5765 38.0956 79.2322C38.1759 79.8698 38.2011 80.5131 38.1712 81.1549C38.1587 81.4697 38.13 81.7837 38.0851 82.0956C38.0037 82.3975 37.8974 82.6922 37.7672 82.9766C37.5039 83.551 37.2751 84.1402 37.0818 84.7413C36.9112 85.3402 36.8039 85.9551 36.7612 86.576L36.5605 88.39C36.425 89.5767 36.3364 90.7611 35.8515 91.7872C35.6119 92.3055 35.2938 92.772 35.0697 93.2876C34.8385 93.7996 34.7093 94.3514 34.6893 94.9123C34.6267 96.0007 34.77 97.0657 34.4728 98.0219C34.1758 98.9782 33.5607 99.784 33.2454 100.694C32.93 101.603 33.0499 102.567 33.1855 103.409C33.3209 104.251 33.459 105.086 33.2767 105.837C33.0941 106.589 32.573 107.133 32.2341 107.745C32.0561 108.037 31.9375 108.361 31.8849 108.698C31.8473 109.005 31.8273 109.314 31.825 109.623C31.8255 109.902 31.7851 110.178 31.705 110.445C31.6078 110.673 31.4558 110.874 31.262 111.03C30.9281 111.298 30.5521 111.509 30.1491 111.655C29.8547 111.766 29.55 111.848 29.2395 111.901C29.0484 111.935 28.855 111.953 28.661 111.956C28.5332 111.943 28.4655 111.945 28.4655 111.945Z" fill="#263238"/>
<path d="M37.4332 78.6982C37.4198 78.7253 37.4102 78.7541 37.4046 78.7838L37.342 79.0428C37.2873 79.2657 37.2195 79.6 37.1127 80.0198C37.0058 80.4396 36.7426 80.9112 36.5237 81.4943C36.3047 82.0773 36.0623 82.7434 35.8486 83.4973C35.635 84.2514 35.4394 85.0858 35.2388 85.9799C35.0659 86.9364 34.7598 87.8645 34.3292 88.737C34.0972 89.1957 33.834 89.6596 33.6255 90.1675C33.4213 90.6881 33.2838 91.2322 33.2163 91.7871C33.0761 92.9327 32.8752 94.0701 32.6143 95.1946L31.0089 101.717L29.664 107.034L28.7726 110.623L28.5381 111.6L28.4807 111.86C28.4724 111.888 28.468 111.918 28.4678 111.948C28.4819 111.921 28.4923 111.894 28.4991 111.865L28.572 111.606L28.8327 110.636L29.7813 107.06L31.1653 101.751L32.7889 95.2231C33.0528 94.0955 33.2555 92.9545 33.3961 91.8052C33.4603 91.264 33.5925 90.7329 33.7898 90.2245C33.9904 89.7295 34.2484 89.2683 34.4804 88.8045C34.913 87.9183 35.2182 86.9762 35.3873 86.0058C35.5828 85.1092 35.7652 84.2748 35.9737 83.5233C36.1823 82.7718 36.4012 82.1033 36.6201 81.5228C36.8389 80.9423 37.0787 80.463 37.183 80.0302C37.2872 79.5975 37.3342 79.2684 37.3811 79.0428L37.4254 78.7838C37.4317 78.7557 37.4343 78.727 37.4332 78.6982Z" fill="#263238"/>
<path d="M28.966 111.953C30.8191 110.857 31.3507 107.532 30.5793 105.529C29.8078 103.526 28.4526 101.699 28.2337 99.5686C28.0721 97.9284 28.6141 96.244 28.2337 94.6451C27.7124 92.4814 25.5909 90.8047 25.6274 88.5814C25.6404 87.3324 26.3545 86.1585 26.2973 84.9121C26.2269 83.3832 25.0462 82.1679 24.3165 80.8229C23.1984 78.75 23.1228 76.3218 22.7528 74.0103C22.3826 71.6988 21.4835 69.2216 19.422 68.084C19.117 70.0482 18.5984 71.3905 18.76 74.044C18.8199 75.0002 19.9353 76.8271 20.0866 78.9209C20.1778 80.1726 20.2403 81.4241 20.3159 82.6784C20.3914 83.9326 20.4697 85.1375 20.9101 86.2777C21.2463 87.151 21.7885 87.944 22.0386 88.8457C22.5077 90.5431 21.8901 92.3804 22.2706 94.0984C22.5911 95.5547 23.6049 96.8089 23.8134 98.286C24.1054 100.359 22.7528 102.518 23.446 104.505C23.7901 105.487 24.6005 106.275 24.8325 107.291C25.0124 108.068 24.8169 108.91 24.9785 109.701C25.2391 110.973 27.6811 111.963 28.9868 111.885" fill="#F97316"/>
<path d="M19.9142 70.0225C19.9101 70.0595 19.9101 70.0968 19.9142 70.1339L19.9559 70.4578C19.9976 70.7402 20.0472 71.1575 20.1436 71.6965C20.24 72.2354 20.5267 72.847 20.7509 73.583C20.975 74.3189 21.2225 75.1611 21.4311 76.1069C21.6396 77.0527 21.8194 78.0997 22.0045 79.2165C22.1895 80.3334 22.3927 81.5694 22.9557 82.7433C23.2164 83.3315 23.5083 83.9224 23.7376 84.5572C23.9513 85.2026 24.0826 85.8721 24.1285 86.55C24.2324 87.99 24.4142 89.4234 24.6733 90.8439L26.2735 99.0454L27.6626 105.726L28.6087 110.227L28.8693 111.45L28.9423 111.766C28.9489 111.803 28.9593 111.838 28.9736 111.872C28.9778 111.836 28.9778 111.798 28.9736 111.761L28.9188 111.44L28.6869 110.211L27.7981 105.7L26.456 99.0118L24.8504 90.8179C24.5929 89.4016 24.411 87.9726 24.3058 86.537C24.2574 85.8457 24.1217 85.1631 23.9018 84.5054C23.6751 83.8628 23.3805 83.2719 23.1199 82.6915C22.5622 81.5357 22.3641 80.3283 22.166 79.2061C21.9679 78.0841 21.7882 77.032 21.5692 76.0966C21.3503 75.1611 21.1079 74.3007 20.8603 73.57C20.6127 72.8393 20.339 72.2277 20.2243 71.7016C20.1098 71.1756 20.0576 70.7532 20.0055 70.4733L19.9455 70.1546C19.9409 70.1094 19.9305 70.065 19.9142 70.0225Z" fill="#263238"/>
<path d="M77.4423 111.867H41.1712C36.7875 111.846 33.0918 108.13 33.0918 103.774L33.4775 12.9455C33.482 11.9088 33.6918 10.883 34.0951 9.9269C34.4982 8.97076 35.0869 8.10299 35.8275 7.37313C36.5681 6.64327 37.4461 6.06563 38.4113 5.6732C39.3764 5.28078 40.4099 5.08125 41.4527 5.08602L77.8906 5.25446C79.9946 5.26474 82.0086 6.10516 83.4898 7.59103C84.971 9.07691 85.7985 11.0867 85.7901 13.1787L85.4043 104.008C85.3953 106.099 84.5518 108.102 83.0589 109.575C81.566 111.049 79.546 111.873 77.4423 111.867Z" fill="#263238"/>
<path d="M77.9296 8.70583L70.8641 8.67215C70.6337 8.6762 70.4064 8.72532 70.1951 8.81672C69.984 8.90813 69.7929 9.04002 69.6329 9.20485C69.4729 9.36969 69.3472 9.56425 69.2628 9.77741C69.1785 9.99058 69.1372 10.2182 69.1413 10.4472V11.7221C69.1455 11.9512 69.1042 12.1788 69.0199 12.3919C68.9356 12.6051 68.8099 12.7997 68.6499 12.9646C68.4899 13.1293 68.2988 13.2612 68.0875 13.3526C67.8762 13.444 67.649 13.4931 67.4186 13.4972L53.6472 13.435C53.1822 13.4221 52.7413 13.2263 52.4213 12.8907C52.1013 12.555 51.9283 12.1068 51.9401 11.6444V10.3695C51.952 9.90709 51.7791 9.45889 51.459 9.1232C51.1389 8.78751 50.698 8.59175 50.2331 8.57885H47.7493L41.5647 8.55035C40.8344 8.54695 40.1106 8.68662 39.4346 8.96142C38.7588 9.2362 38.1439 9.64071 37.6251 10.1518C37.1065 10.663 36.6943 11.2707 36.4118 11.9404C36.1295 12.6099 35.9826 13.3283 35.9795 14.0543L35.6016 102.712C35.5954 104.177 36.1747 105.585 37.2123 106.626C38.2498 107.667 39.6607 108.255 41.1346 108.262L77.4995 108.428C78.2298 108.431 78.9536 108.292 79.6296 108.017C80.3055 107.742 80.9203 107.338 81.4391 106.827C81.9578 106.315 82.37 105.708 82.6524 105.038C82.9348 104.369 83.0817 103.65 83.0848 102.924L83.4626 14.2565C83.4689 12.791 82.8896 11.383 81.8519 10.3421C80.8144 9.30127 79.4036 8.71269 77.9296 8.70583Z" fill="#F5F5F5"/>
<path d="M62.4955 91.6622C62.4538 92.7325 62.4148 93.7353 62.3809 94.5723H67.5933L66.9548 91.3823L62.4955 91.6622Z" fill="#F5F5F5"/>
<path d="M41.2646 92.9972L41.309 94.5702H61.8592C61.8931 93.6866 61.9322 92.7045 61.9712 91.6938L41.2646 92.9972Z" fill="#F5F5F5"/>
<path d="M67.2285 91.3671L67.8697 94.5726H77.4998L77.3851 90.7271L67.2285 91.3671Z" fill="#F5F5F5"/>
<path d="M63.0161 46.5398L64.8379 36.0398L60.0684 35.6899V46.5398H63.0161Z" fill="#F5F5F5"/>
<path d="M40.8342 87.1719L35.6582 89.188L35.6426 92.8339L40.988 92.4971L40.8342 87.1719Z" fill="#F5F5F5"/>
<path d="M40.8112 86.3531L40.527 76.5733L40.5244 76.576V73.127L35.7237 73.6323L35.6611 88.351L40.8085 86.3453L40.8112 86.3531Z" fill="#F5F5F5"/>
<path d="M40.5241 65.4278L35.7624 64.8032L35.7285 72.8493L40.5241 72.344V65.4278Z" fill="#F5F5F5"/>
<path d="M76.0167 73.2714L75.8187 76.0727L70.1943 76.6764L70.6296 78.8946L77.0123 78.4153L76.9185 75.2357L77.4267 73.1289L76.0167 73.2714Z" fill="#F5F5F5"/>
<path d="M65.8802 79.2502L70.3655 78.9134L69.3883 73.938L65.4736 74.3293L65.8802 79.2502Z" fill="#F5F5F5"/>
<path d="M65.9229 79.7655L66.2669 83.9168L66.8741 89.6073L67.1243 90.8537L77.3695 90.2085L77.0281 78.9336L65.9229 79.7655Z" fill="#F5F5F5"/>
<path d="M48.2912 60.1723L48.6848 60.8435L40.7853 65.4224V76.3059L49.1253 75.7203L65.1927 74.0955L64.6064 66.9772L49.2529 64.9818L49.3546 64.2045L64.5412 66.1764L63.5456 54.119L48.5128 55.5597L48.4633 55.0414L63.5014 53.6033L62.9801 47.3115H48.5128L35.8282 49.6153L35.7656 64.023L40.5741 64.645L48.2912 60.1723ZM41.5932 75.2695C41.5932 75.2695 41.6531 66.3086 41.5932 65.9717L48.041 62.5615L48.8777 74.8107L41.5932 75.2695Z" fill="#F5F5F5"/>
<path d="M75.49 73.3237L69.6494 73.9118L70.0924 76.1664L75.3284 75.604L75.49 73.3237Z" fill="#F5F5F5"/>
<path d="M62.5684 89.7422L62.5137 91.1416L66.8609 90.8668L66.6367 89.7526L62.5684 89.7422Z" fill="#F5F5F5"/>
<path d="M53.2042 46.5397L53.9704 43.0854H59.8084V35.6716L41.5569 34.3267V41.2896L35.8571 42.5722L35.8311 48.8226L48.453 46.5397H53.2042Z" fill="#F5F5F5"/>
<path d="M65.3831 25.9024L65.2267 25.2675L72.1958 22.5258L67.6636 13.4769C67.5774 13.4907 67.4903 13.4976 67.4029 13.4976L59.7197 13.4614L59.9282 26.1227L65.3831 25.9024Z" fill="#F5F5F5"/>
<path d="M75.9432 21.0512V8.69828L70.8636 8.67236C70.6332 8.67641 70.406 8.72554 70.1947 8.81695C69.9834 8.90835 69.7924 9.04024 69.6324 9.20508C69.4725 9.36991 69.3466 9.56447 69.2624 9.77764C69.178 9.99081 69.1367 10.2184 69.1409 10.4474V11.7224C69.1406 12.007 69.0731 12.2876 68.9436 12.5415C68.8141 12.7954 68.6263 13.0155 68.3955 13.1839L72.9303 22.238L75.9432 21.0512Z" fill="#F5F5F5"/>
<path d="M49.7456 21.5801L49.1592 8.57425H47.7466L42.2343 8.54834L39.8887 20.1808L49.7456 21.5801ZM48.4893 9.89065L48.677 20.4841L41.3508 19.419L42.9563 9.89323L48.4893 9.89065Z" fill="#F5F5F5"/>
<path d="M50.0109 21.6291V21.7405C50.0109 22.7562 50.0448 24.591 50.0604 26.5371L59.6592 26.1483L59.4585 13.4612L53.6492 13.4352C53.1842 13.4223 52.7433 13.2266 52.4233 12.8909C52.1033 12.5552 51.9303 12.1071 51.9421 11.6446V10.3697C51.954 9.90733 51.7809 9.45912 51.461 9.12343C51.1409 8.78776 50.7 8.59199 50.2351 8.5791H49.4219L50.0082 21.6291H50.0109Z" fill="#F5F5F5"/>
<path d="M39.1123 20.0742L41.4369 8.55566C39.985 8.58139 38.6009 9.17125 37.5809 10.199C36.5609 11.2267 35.9861 12.6106 35.9795 14.0544L35.9561 19.7968L35.9795 19.6285L39.1123 20.0742Z" fill="#F5F5F5"/>
<path d="M40.7748 34.2699L35.8933 33.9097L35.8594 41.7743L40.7748 40.6679V34.2699Z" fill="#F5F5F5"/>
<path d="M39.0598 20.3181L35.9532 19.875L35.8984 32.6113L36.5683 32.6606L39.0598 20.3181Z" fill="#F5F5F5"/>
<path d="M48.9196 86.2024L49.0004 75.9771L40.7881 76.5549L41.08 86.573L48.9196 86.2024Z" fill="#F5F5F5"/>
<path d="M50.4313 83.8415L62.0656 89.3818C62.2037 85.754 62.3262 82.3852 62.3262 82.1598L62.5869 82.1468L62.7093 81.9032C62.8735 81.9862 62.8735 81.9862 62.7876 84.4531C62.738 85.8291 62.6703 87.6612 62.5999 89.4959H66.6005L66.0062 83.94L65.2244 74.3521L50.0273 75.8758L50.4313 83.8415Z" fill="#F5F5F5"/>
<path d="M78.9383 66.8738L78.808 65.5264L64.8672 66.9671L65.4537 74.0726L77.4919 72.865L78.9383 66.8738Z" fill="#F5F5F5"/>
<path d="M59.8081 43.8623H54.5982L54.0039 46.5392H59.8081V43.8623Z" fill="#F5F5F5"/>
<path d="M76.7878 44.7643L63.7566 43.8677L63.2354 46.9306L63.7853 53.58L77.5411 52.2636L76.7878 44.7643ZM64.2258 46.9255L64.9268 44.9923L76.2562 45.705L76.9207 51.2349L64.6193 52.686L64.2258 46.9255Z" fill="#F5F5F5"/>
<path d="M78.1406 58.6646L77.5672 52.7822L63.8037 54.0987L64.3197 60.3568L78.1406 58.6646Z" fill="#F5F5F5"/>
<path d="M41.0037 93.0152L35.6635 93.3521L35.6427 93.0049L35.6348 94.5726H41.0479L41.0037 93.0152Z" fill="#F5F5F5"/>
<path d="M83.3661 18.1308L83.4442 18.3277L83.4625 14.2568C83.4687 12.7912 82.8894 11.3832 81.8518 10.3424C80.8142 9.30149 79.4034 8.71292 77.9295 8.70605H76.1963V20.9553L83.3661 18.1308Z" fill="#F5F5F5"/>
<path d="M62.0492 89.6645L50.1778 84.0103L49.7582 75.9072L49.2604 75.9564L49.177 86.4487L41.0977 86.8296V87.0629L41.254 92.4736L61.9971 91.1779L62.0492 89.6645ZM41.5928 87.4983L52.9196 86.7208L60.2874 90.1206L41.5928 91.1261V87.4983Z" fill="#F5F5F5"/>
<path d="M79.9908 31.7354L80.4755 28.8719C76.217 27.3612 75.9224 22.9482 75.9355 21.6162L73.1572 22.7098L77.3428 31.0616L79.9908 31.7354Z" fill="#F5F5F5"/>
<path d="M64.8018 66.1924L70.5903 65.5938L69.4514 60.5122L64.3848 61.1315L64.8018 66.1924Z" fill="#F5F5F5"/>
<path d="M76.8055 36.1279L65.9949 36.1254L65.0983 36.0605L63.876 43.0986L76.7092 43.9823L76.412 40.9218L77.676 36.4L76.8055 36.1279Z" fill="#F5F5F5"/>
<path d="M76.543 34.8321L76.6786 31.4634L72.4304 22.9819L65.8418 25.5733L68.1067 34.8218L76.543 34.8321ZM72.1724 24.0237L76.0661 31.3882L75.5031 33.6841L68.8416 33.425L67.1762 26.4595L72.1724 24.0237Z" fill="#F5F5F5"/>
<path d="M78.2236 75.3708L78.4244 81.9709L83.1077 81.7091L83.1234 81.9656L78.4321 82.23L78.6693 90.1284L83.0973 89.8485L83.1312 90.3668L78.685 90.6466L78.8048 94.5726H83.1208L83.2146 72.5488L78.7997 72.9919L78.2236 75.3708Z" fill="#F5F5F5"/>
<path d="M49.753 21.8441L39.8337 20.4292L37.3525 32.7173L49.7974 33.6346C49.8469 31.7352 49.8156 25.9384 49.753 21.8441Z" fill="#F5F5F5"/>
<path d="M66.0688 34.8317H67.5699L65.4458 26.1611L59.9258 26.3839L60.0588 34.3886L66.0688 34.8317Z" fill="#F5F5F5"/>
<path d="M50.0498 33.6502L59.7946 34.3681L59.6617 26.3945L50.0759 26.7832C50.0759 29.4808 50.0915 32.3572 50.0498 33.6502Z" fill="#F5F5F5"/>
<path d="M78.2158 59.4395L69.709 60.4812L70.8532 65.5679L78.7318 64.7517L78.2158 59.4395Z" fill="#F5F5F5"/>
<path d="M80.5221 28.613L81.0669 25.3998L83.4125 25.5811L83.4412 18.6597L76.1984 21.5102C76.0524 26.3767 79.1305 28.0896 80.5221 28.613Z" fill="#F5F5F5"/>
<path d="M77.7344 41.0356L78.0289 44.0727L83.3326 44.438L83.3613 38.1852L78.9176 36.791L77.7344 41.0356Z" fill="#F5F5F5"/>
<path d="M80.2566 66.9775L78.8623 72.7381L83.2121 72.3028L83.2382 66.2624C81.9037 65.9126 80.7388 65.6274 80.1106 65.5083L80.2566 66.9775Z" fill="#F5F5F5"/>
<path d="M77.3223 34.9301L83.3661 36.827L83.3792 33.4089L77.4447 31.8853L77.3223 34.9301Z" fill="#F5F5F5"/>
<path d="M80.0484 64.7019C80.5358 64.7744 81.4584 64.961 83.2541 65.4405L83.3114 52.2246L78.8809 52.6496L80.0484 64.7019Z" fill="#F5F5F5"/>
<path d="M78.816 52.1421L83.3039 51.7146L83.3299 45.2155L78.1045 44.8579L78.816 52.1421Z" fill="#F5F5F5"/>
<path d="M81.0234 28.7762C81.8731 29.0354 82.6654 29.2323 83.3977 29.3773L83.4108 26.0993L81.5004 25.9517L81.0234 28.7762Z" fill="#F5F5F5"/>
<path d="M80.499 31.8647L83.3842 32.6058V29.6413C82.6388 29.4936 81.8204 29.2914 80.9655 29.0298L80.499 31.8647Z" fill="#F5F5F5"/>
<path d="M83.1311 90.3641L83.0971 89.846L78.6665 90.1232L78.4267 82.2248L83.118 81.9657L83.1023 81.7065L78.4111 81.9657L78.2235 75.3708L78.7994 72.9919L83.2145 72.5487V72.2896L78.8646 72.725L80.2563 66.9775L80.113 65.5055C80.7384 65.6248 81.9035 65.9098 83.2405 66.2596V65.4512C81.4447 64.9821 80.5221 64.7877 80.0348 64.7126L78.862 52.668L83.2926 52.2431V51.7248L78.8047 52.155L78.0957 44.8682L83.3083 45.2284V44.4509L78.0019 44.0856L77.7075 41.0485L78.8932 36.8039L83.3239 38.1981V36.8402L77.28 34.9433L77.4025 31.8986L83.3396 33.4249V32.6241L80.4544 31.883L80.9339 29.0507C81.7992 29.3098 82.6045 29.5145 83.3525 29.6622V29.4031C82.6202 29.258 81.8279 29.0584 80.9782 28.8019L81.4578 25.9774L83.3682 26.1251V25.6068L81.0226 25.4253L80.4778 28.6387C79.0887 28.1204 76.0107 26.4049 76.1567 21.5332L83.3995 18.6827V18.3536L83.3212 18.1567L76.1593 20.9735V8.72425H75.8987V21.0771L72.8806 22.264L68.3457 13.2098C68.1304 13.3638 67.881 13.4642 67.6186 13.5027L72.1508 22.549L65.2261 25.257L65.3825 25.8918L59.9094 26.1147L59.7191 13.4612H59.4584L59.6669 26.1355L50.0682 26.5241C50.0525 24.5702 50.0316 22.7433 50.0187 21.7276V21.6291L49.4296 8.58691H49.1689L49.7554 21.5928L39.896 20.1858L42.2415 8.55322H41.5691H41.4415L39.1115 20.0742L35.984 19.626L35.9605 19.7944V19.8825L39.0672 20.3256L36.5756 32.6655L35.9058 32.6163V33.912L40.7873 34.2722V40.6728L35.872 41.7793V42.5774L41.5718 41.2947V34.3266L59.8155 35.6716V43.0854H53.9698L53.2034 46.537H48.4523L35.8303 48.82V49.6154L48.5123 47.3144H62.9716L63.4929 53.6061L48.4548 55.0443L48.5045 55.5626L63.5346 54.1244L64.5302 66.1819L49.3437 64.2099L49.2419 64.9873L64.5954 66.9826L65.1922 74.0958L49.1221 75.7076L40.7821 76.2932V65.4226L48.6816 60.8412L48.288 60.17L40.5736 64.6452L35.7651 64.0155V64.7929L40.5241 65.4226V72.3389L35.7285 72.8442V73.6216L40.5293 73.1034V76.5654L40.8133 86.3425L35.666 88.3481V89.1852L40.842 87.169L40.9959 92.4943L35.6504 92.8311V93.0047L35.6712 93.3494L41.0114 93.0126L41.0558 94.5673H41.3164L41.2721 92.9943L61.9787 91.6987C61.9396 92.7094 61.9005 93.6915 61.8666 94.5751H62.3879C62.4218 93.7407 62.4609 92.7353 62.5026 91.665L66.9723 91.3826L67.6108 94.5725H67.8714L67.2277 91.367L77.3921 90.7269L77.5094 94.5725H78.8125L83.1311 90.3641ZM62.5234 91.1416L62.5781 89.7423H66.6491L66.8732 90.8566L62.5234 91.1416ZM67.1338 90.8513L66.8732 89.6049L66.266 83.904L65.922 79.7579L77.0272 78.9261L77.3686 90.2009L67.1338 90.8513ZM69.6594 73.9092L75.4999 73.3236L75.3357 75.604L70.0998 76.1662L69.6594 73.9092ZM69.3987 73.9352L70.3761 78.9105L65.8907 79.2474L65.4841 74.3238L69.3987 73.9352ZM77.022 78.413L70.6288 78.8976L70.1936 76.6794L75.8179 76.0756L76.0185 73.2744L77.4286 73.1319L76.9073 75.2385L77.022 78.413ZM69.4638 60.5095L70.6053 65.591L64.8013 66.2L64.3842 61.1392L69.4638 60.5095ZM70.866 65.5652L69.7244 60.4784L78.2286 59.4418L78.7499 64.7566L70.866 65.5652ZM76.7248 43.9793L63.8891 43.0982L65.1114 36.0602L66.008 36.125H76.8186L77.6762 36.3997L76.3991 40.919L76.7248 43.9793ZM75.943 21.6084C75.943 22.9455 76.2245 27.3585 80.4831 28.8641L79.9904 31.7352L77.3426 31.0538L73.1569 22.702L75.943 21.6084ZM72.435 22.9896L76.678 31.4762L76.5424 34.8449H68.1059L65.8412 25.5964L72.435 22.9896ZM65.4528 26.1587L67.5769 34.8293H66.0757L60.0658 34.3862L59.9329 26.3816L65.4528 26.1587ZM59.6722 26.3945L59.8051 34.3681L50.0603 33.6503C50.102 32.3546 50.0916 29.4808 50.0603 26.7833L59.6722 26.3945ZM39.8413 20.4344L49.7606 21.8493C49.8102 25.9436 49.8544 31.7456 49.8049 33.6373L37.3601 32.72L39.8413 20.4344ZM64.8456 36.0472L63.0212 46.5447H60.0683V35.687L64.8456 36.0472ZM54.5978 43.8627H59.8103V46.537H54.0062L54.5978 43.8627ZM63.1985 46.9334L63.7196 43.8706L76.7509 44.7671L77.4806 52.269L63.7249 53.5854L63.1985 46.9334ZM77.5536 52.7847L78.127 58.6671L64.3139 60.3591L63.7926 54.101L77.5536 52.7847ZM64.8665 66.9775L78.8073 65.5366L78.9376 66.8842L77.4885 72.8727L65.4528 74.0699L64.8665 66.9775ZM66.0054 83.9507L66.5996 89.5065H62.586C62.6563 87.6743 62.724 85.8423 62.7737 84.4638C62.8596 81.9968 62.8596 81.9968 62.6954 81.9139L62.5729 82.1574L62.3123 82.1704C62.3123 82.3854 62.2002 85.7724 62.0517 89.3925L50.42 83.8522L50.0083 75.889L65.2052 74.3653L66.0054 83.9507ZM48.9996 75.9875L48.9188 86.2129L41.0793 86.5834L40.7873 76.5654L48.9996 75.9875ZM41.0922 87.081V86.8478L49.1716 86.4668L49.255 75.9745L49.7528 75.9253L50.1724 84.0284L62.0439 89.6827L61.9865 91.1934L41.2434 92.489L41.0922 87.081Z" fill="white"/>
<path d="M52.9196 86.7075L41.5928 87.4978V91.1127L60.2873 90.1073L52.9196 86.7075Z" fill="#EBEBEB"/>
<path d="M76.2505 45.7053L64.9237 44.9927L64.2227 46.9284L64.6058 52.689L76.9073 51.2379L76.2505 45.7053Z" fill="#EBEBEB"/>
<path d="M35.6355 91.1416L35.6094 100.88V102.865C35.6453 104.301 36.2423 105.666 37.2739 106.671C38.3054 107.676 39.6902 108.243 41.1346 108.25L77.4996 108.415C78.2299 108.419 78.9536 108.279 79.6296 108.004C80.3056 107.73 80.9204 107.325 81.4391 106.814C81.9577 106.303 82.3701 105.695 82.6524 105.025C82.9349 104.356 83.0818 103.637 83.0848 102.911L83.1213 91.1416H35.6355Z" fill="#EBEBEB"/>
<path d="M48.6768 20.4864L48.4891 9.89307H42.9535L41.3506 19.4188L48.6768 20.4864Z" fill="#EBEBEB"/>
<path d="M75.5027 33.6839L76.0657 31.388L72.172 24.0234L67.1758 26.4671L68.8412 33.4351L75.5027 33.6839Z" fill="#EBEBEB"/>
<path d="M41.5928 65.9615C41.6527 66.2958 41.5928 75.2592 41.5928 75.2592L48.8747 74.8005L48.0381 62.5513L41.5928 65.9615Z" fill="#EBEBEB"/>
<path d="M65.8838 73.2404L65.498 67.6872L77.9872 66.0908V67.0471L76.4781 72.1545L65.8838 73.2404Z" fill="#EBEBEB"/>
<path d="M77.5284 87.3892L77.372 83.7614L66.3919 84.2797C66.1051 84.2928 65.8195 84.2321 65.5632 84.1035L49.9883 76.3061C49.811 76.2166 49.6606 76.0825 49.5522 75.9169C49.4437 75.7512 49.3811 75.5601 49.3705 75.3628L47.2516 34.4872C47.2475 34.3913 47.2637 34.2955 47.2992 34.2063C47.3346 34.1169 47.3886 34.0361 47.4576 33.9689C47.5263 33.9026 47.6081 33.8511 47.6977 33.8176C47.7875 33.7843 47.8831 33.7696 47.9787 33.7746L54.6534 34.2669V27.0112H55.4352V34.3653C55.4351 34.4593 55.4156 34.5522 55.3778 34.6383C55.34 34.7243 55.2848 34.8018 55.2156 34.8656C55.1464 34.9296 55.0647 34.9787 54.9757 35.0099C54.8865 35.041 54.792 35.0537 54.6976 35.0469L48.0284 34.5545L50.142 75.324C50.1451 75.3847 50.1643 75.4436 50.1977 75.4946C50.2312 75.5456 50.2775 75.5868 50.3322 75.6142L65.9046 83.4348C66.0406 83.5038 66.1925 83.536 66.345 83.5281L77.4164 82.9917C77.5076 82.9866 77.5989 82.9998 77.6848 83.0305C77.7709 83.0613 77.8497 83.1088 77.9168 83.1705C77.9839 83.2314 78.0383 83.3048 78.0768 83.3867C78.1153 83.4685 78.1371 83.5571 78.1409 83.6474L78.3024 87.3608L77.5284 87.3892Z" fill="white"/>
<path d="M72.779 24.0754C73.6195 24.0754 74.301 23.398 74.301 22.5621C74.301 21.7263 73.6195 21.0488 72.779 21.0488C71.9383 21.0488 71.2568 21.7263 71.2568 22.5621C71.2568 23.398 71.9383 24.0754 72.779 24.0754Z" fill="#F97316"/>
<g opacity="0.6">
<path opacity="0.6" d="M72.8098 24.2915C73.6504 24.2582 74.3045 23.5535 74.271 22.7177C74.2373 21.8819 73.5286 21.2314 72.688 21.2649C71.8474 21.2983 71.1933 22.0029 71.2268 22.8387C71.2605 23.6746 71.9692 24.325 72.8098 24.2915Z" fill="white"/>
</g>
<path d="M72.7798 23.5158C73.3383 23.5158 73.791 23.0656 73.791 22.5103C73.791 21.955 73.3383 21.5049 72.7798 21.5049C72.2213 21.5049 71.7686 21.955 71.7686 22.5103C71.7686 23.0656 72.2213 23.5158 72.7798 23.5158Z" fill="#F97316"/>
<path d="M77.856 87.9442L77.6684 83.6997C77.6672 83.6692 77.6599 83.6393 77.647 83.6118C77.6339 83.5841 77.6156 83.5594 77.5928 83.5389C77.5704 83.5185 77.5442 83.5025 77.5155 83.4924C77.4869 83.4821 77.4564 83.4777 77.426 83.4794L65.9741 84.0806L64.5928 66.8119L62.8467 46.9209V46.9027L64.8039 36.2783C64.8393 36.0844 64.9419 35.9092 65.0937 35.7827C65.2456 35.6563 65.4373 35.5869 65.6354 35.5864L75.9899 35.5553C76.1779 35.5549 76.3588 35.4836 76.4957 35.3556C76.6327 35.2275 76.7156 35.0525 76.7275 34.866L76.9047 32.0155C76.9268 31.6511 76.8551 31.2873 76.6962 30.9583L72.6513 22.5675L72.8859 22.4561L76.9309 30.8468C77.1084 31.2164 77.1883 31.6248 77.1627 32.0336L76.9855 34.8841C76.9697 35.1366 76.8575 35.3737 76.6721 35.5469C76.4867 35.7203 76.2418 35.8168 75.9874 35.8169L65.6327 35.848C65.4955 35.8484 65.3626 35.8964 65.2574 35.9841C65.1522 36.0717 65.0811 36.1932 65.0568 36.3275L63.1073 46.9313L64.8326 66.7808L66.1931 83.7981L77.3999 83.2202C77.4646 83.2165 77.5293 83.2258 77.5902 83.2476C77.6512 83.2696 77.707 83.3034 77.7544 83.3472C77.8027 83.3903 77.8418 83.4424 77.8696 83.5007C77.8973 83.5591 77.9131 83.6222 77.916 83.6867L78.1037 87.9313L77.856 87.9442Z" fill="#F97316"/>
<path d="M77.9166 88.2446C78.2749 88.2446 78.5655 87.9558 78.5655 87.5994C78.5655 87.243 78.2749 86.9541 77.9166 86.9541C77.5582 86.9541 77.2676 87.243 77.2676 87.5994C77.2676 87.9558 77.5582 88.2446 77.9166 88.2446Z" fill="black"/>
<path d="M65.4601 76.2939C65.7962 76.271 66.05 75.9816 66.0268 75.6475C66.0038 75.3133 65.7128 75.0611 65.3767 75.084C65.0407 75.1068 64.787 75.3962 64.81 75.7303C64.8331 76.0646 65.1241 76.3168 65.4601 76.2939Z" fill="#F97316"/>
<path d="M65.4741 76.1587C65.1824 76.1786 64.9106 76.3129 64.7185 76.5321C64.5264 76.7512 64.4298 77.0373 64.4499 77.3273L66.6469 77.177C66.6269 76.8875 66.4922 76.6176 66.2723 76.4268C66.0524 76.2359 65.7654 76.1394 65.4741 76.1587Z" fill="#F97316"/>
<path d="M74.1577 69.2061H68.7472C68.528 69.2061 68.3179 69.2926 68.163 69.4466C68.008 69.6007 67.9209 69.8097 67.9209 70.0275V73.3963C67.9209 73.6141 68.008 73.8231 68.163 73.9771C68.3179 74.1312 68.528 74.2177 68.7472 74.2177H68.8566V75.0236L69.7949 74.2177H74.1577C74.3768 74.2177 74.5869 74.1312 74.7419 73.9771C74.8968 73.8231 74.9838 73.6141 74.9838 73.3963V70.0275C74.9838 69.8097 74.8968 69.6007 74.7419 69.4466C74.5869 69.2926 74.3768 69.2061 74.1577 69.2061Z" fill="#F97316"/>
<g opacity="0.4">
<path opacity="0.4" d="M74.1577 69.2061H68.7472C68.528 69.2061 68.3179 69.2926 68.163 69.4466C68.008 69.6007 67.9209 69.8097 67.9209 70.0275V73.3963C67.9209 73.6141 68.008 73.8231 68.163 73.9771C68.3179 74.1312 68.528 74.2177 68.7472 74.2177H68.8566V75.0236L69.7949 74.2177H74.1577C74.3768 74.2177 74.5869 74.1312 74.7419 73.9771C74.8968 73.8231 74.9838 73.6141 74.9838 73.3963V70.0275C74.9838 69.8097 74.8968 69.6007 74.7419 69.4466C74.5869 69.2926 74.3768 69.2061 74.1577 69.2061Z" fill="white"/>
</g>
<path d="M70.4654 71.854V72.2971H70.283V71.8489L69.7617 71.0171H69.9572L70.3689 71.6908L70.7833 71.0171H70.9658L70.4654 71.854Z" fill="white"/>
<path d="M70.926 71.8103C70.9244 71.7106 70.9527 71.6128 71.0071 71.5291C71.0616 71.4455 71.1399 71.38 71.232 71.3407C71.3241 71.3013 71.4258 71.29 71.5243 71.3084C71.6228 71.3267 71.7137 71.3737 71.7853 71.4434C71.8569 71.5131 71.906 71.6024 71.9265 71.7C71.947 71.7975 71.9377 71.8989 71.9001 71.9913C71.8625 72.0837 71.7981 72.1628 71.7151 72.2187C71.6322 72.2745 71.5344 72.3047 71.4342 72.3053C71.3674 72.3085 71.3008 72.298 71.2383 72.2744C71.1758 72.2508 71.119 72.2146 71.0713 72.1681C71.0235 72.1217 70.986 72.0659 70.961 72.0043C70.936 71.9427 70.9241 71.8767 70.926 71.8103ZM71.7599 71.8103C71.7552 71.7462 71.7317 71.685 71.6922 71.6342C71.6528 71.5835 71.5991 71.5454 71.538 71.5247C71.4767 71.5041 71.4108 71.5019 71.3485 71.5183C71.2861 71.5348 71.2299 71.5691 71.187 71.6171C71.1441 71.665 71.1164 71.7246 71.1073 71.7881C71.0982 71.8516 71.1081 71.9164 71.1359 71.9744C71.1637 72.0323 71.2081 72.0808 71.2634 72.1139C71.3188 72.1469 71.3827 72.163 71.4471 72.1602C71.4921 72.1604 71.5364 72.1512 71.5775 72.1332C71.6186 72.1154 71.6554 72.089 71.6857 72.056C71.7159 72.0231 71.7388 71.9842 71.753 71.9419C71.7671 71.8995 71.7721 71.8547 71.7678 71.8103H71.7599Z" fill="white"/>
<path d="M73.0977 71.3281V72.2974H72.9309V72.16C72.8926 72.2109 72.8426 72.2519 72.7849 72.2795C72.7273 72.3071 72.6638 72.3203 72.5998 72.318C72.5429 72.3239 72.4852 72.3169 72.4313 72.2976C72.3774 72.2783 72.3285 72.2474 72.2882 72.2068C72.248 72.1663 72.2174 72.1172 72.1987 72.0634C72.18 72.0097 72.1737 71.9522 72.1803 71.8956V71.3385H72.3575V71.8749C72.3575 72.0641 72.4538 72.16 72.6181 72.16C72.6603 72.1626 72.7026 72.156 72.7419 72.1405C72.7812 72.125 72.8166 72.1009 72.8455 72.0703C72.8745 72.0396 72.8962 72.0029 72.9091 71.9628C72.922 71.9228 72.9259 71.8804 72.9205 71.8387V71.3385L73.0977 71.3281Z" fill="white"/>
<path d="M42.0775 96.1505C42.115 96.1505 42.1453 95.9764 42.1453 95.7617C42.1453 95.5471 42.115 95.373 42.0775 95.373C42.0401 95.373 42.0098 95.5471 42.0098 95.7617C42.0098 95.9764 42.0401 96.1505 42.0775 96.1505Z" fill="#263238"/>
<path d="M42.0775 97.7057C42.115 97.7057 42.1453 97.5316 42.1453 97.317C42.1453 97.1023 42.115 96.9282 42.0775 96.9282C42.0401 96.9282 42.0098 97.1023 42.0098 97.317C42.0098 97.5316 42.0401 97.7057 42.0775 97.7057Z" fill="#263238"/>
<path d="M42.0775 99.2602C42.115 99.2602 42.1453 99.0863 42.1453 98.8716C42.1453 98.6569 42.115 98.4829 42.0775 98.4829C42.0401 98.4829 42.0098 98.6569 42.0098 98.8716C42.0098 99.0863 42.0401 99.2602 42.0775 99.2602Z" fill="#263238"/>
<path d="M42.0775 100.815C42.115 100.815 42.1453 100.641 42.1453 100.426C42.1453 100.212 42.115 100.038 42.0775 100.038C42.0401 100.038 42.0098 100.212 42.0098 100.426C42.0098 100.641 42.0401 100.815 42.0775 100.815Z" fill="#263238"/>
<path d="M42.0775 102.152C42.115 102.152 42.1453 102.027 42.1453 101.872C42.1453 101.718 42.115 101.592 42.0775 101.592C42.0401 101.592 42.0098 101.718 42.0098 101.872C42.0098 102.027 42.0401 102.152 42.0775 102.152Z" fill="#263238"/>
<path d="M43.185 103.481C43.1855 103.312 43.1465 103.145 43.0713 102.993C42.996 102.84 42.8865 102.708 42.7512 102.605C42.6159 102.502 42.4584 102.431 42.2913 102.398C42.124 102.365 41.9513 102.372 41.7869 102.416C41.6224 102.46 41.4704 102.542 41.3428 102.655C41.2153 102.767 41.1155 102.907 41.0512 103.064C40.9871 103.221 40.9602 103.391 40.9727 103.56C40.9853 103.729 41.0369 103.893 41.1235 104.039C41.1652 104.109 41.22 104.16 41.2721 104.235L41.9158 105.083C41.9345 105.107 41.9586 105.127 41.9862 105.14C42.0137 105.154 42.0441 105.161 42.0747 105.161C42.1055 105.161 42.1359 105.154 42.1634 105.14C42.191 105.127 42.2151 105.107 42.2338 105.083L42.8671 104.251C42.9287 104.182 42.9861 104.109 43.039 104.033C43.136 103.866 43.1864 103.675 43.185 103.481ZM42.0774 103.961C41.981 103.961 41.8868 103.932 41.8067 103.879C41.7265 103.826 41.6641 103.75 41.6272 103.662C41.5902 103.573 41.5805 103.476 41.5994 103.382C41.6182 103.288 41.6647 103.201 41.7327 103.134C41.8009 103.066 41.8878 103.02 41.9823 103.001C42.0769 102.982 42.1748 102.992 42.264 103.029C42.353 103.065 42.4291 103.127 42.4827 103.207C42.5362 103.287 42.5647 103.38 42.5647 103.476C42.5647 103.605 42.5135 103.728 42.422 103.819C42.3306 103.91 42.2067 103.961 42.0774 103.961Z" fill="#455A64"/>
<path d="M70.1945 103.961C70.1945 103.997 64.5754 104.028 57.648 104.028C50.7206 104.028 45.1016 103.997 45.1016 103.961C45.1016 103.925 50.718 103.894 57.648 103.894C64.5781 103.894 70.1945 103.925 70.1945 103.961Z" fill="#263238"/>
<path d="M52.6874 102.935C56.8862 102.935 60.2898 102.904 60.2898 102.867C60.2898 102.83 56.8862 102.8 52.6874 102.8C48.4887 102.8 45.085 102.83 45.085 102.867C45.085 102.904 48.4887 102.935 52.6874 102.935Z" fill="#F97316"/>
<path d="M47.191 105.267C48.3008 105.267 49.2005 105.236 49.2005 105.199C49.2005 105.162 48.3008 105.132 47.191 105.132C46.0814 105.132 45.1816 105.162 45.1816 105.199C45.1816 105.236 46.0814 105.267 47.191 105.267Z" fill="#263238"/>
<path d="M43.185 94.8911C43.1855 94.7217 43.1465 94.5544 43.0713 94.4022C42.996 94.2502 42.8865 94.1174 42.7512 94.0143C42.6159 93.9112 42.4584 93.8405 42.2913 93.8078C42.124 93.7751 41.9513 93.7812 41.7869 93.8257C41.6224 93.8701 41.4704 93.9517 41.3428 94.0642C41.2153 94.1765 41.1155 94.3167 41.0512 94.4737C40.9871 94.6307 40.9602 94.8003 40.9727 94.9694C40.9853 95.1384 41.0369 95.3023 41.1235 95.4482C41.1652 95.5182 41.22 95.57 41.2721 95.6452L41.9158 96.4926C41.9345 96.5168 41.9586 96.5363 41.9862 96.5499C42.0137 96.5633 42.0441 96.5704 42.0747 96.5704C42.1055 96.5704 42.1359 96.5633 42.1634 96.5499C42.191 96.5363 42.2151 96.5168 42.2338 96.4926L42.8671 95.6608C42.925 95.593 42.9789 95.522 43.0286 95.4482C43.1301 95.2799 43.1842 95.0874 43.185 94.8911ZM42.0774 95.3705C41.981 95.3705 41.8868 95.3421 41.8067 95.2888C41.7265 95.2355 41.6641 95.1599 41.6272 95.0714C41.5902 94.9828 41.5805 94.8854 41.5994 94.7914C41.6182 94.6973 41.6647 94.6111 41.7327 94.5433C41.8009 94.4755 41.8878 94.4294 41.9823 94.4107C42.0769 94.392 42.1748 94.4015 42.264 94.4382C42.353 94.4749 42.4291 94.537 42.4827 94.6167C42.5362 94.6964 42.5647 94.79 42.5647 94.886C42.5647 95.0144 42.5135 95.1377 42.422 95.2285C42.3306 95.3194 42.2067 95.3705 42.0774 95.3705Z" fill="#F97316"/>
<path d="M75.493 95.3705C75.493 95.4069 68.688 95.438 60.2985 95.438C51.909 95.438 45.1016 95.4069 45.1016 95.3705C45.1016 95.3343 51.9039 95.3032 60.2985 95.3032C68.6933 95.3032 75.493 95.3343 75.493 95.3705Z" fill="#263238"/>
<path d="M66.6003 94.2769C66.6003 94.3132 61.7839 94.3442 55.8416 94.3442C49.8994 94.3442 45.083 94.3132 45.083 94.2769C45.083 94.2406 49.8994 94.2095 55.8416 94.2095C61.7839 94.2095 66.6003 94.2406 66.6003 94.2769Z" fill="#F97316"/>
<path d="M51.0751 96.6768C54.331 96.6768 56.9703 96.6465 56.9703 96.6093C56.9703 96.5721 54.331 96.542 51.0751 96.542C47.8192 96.542 45.1797 96.5721 45.1797 96.6093C45.1797 96.6465 47.8192 96.6768 51.0751 96.6768Z" fill="#263238"/>
<path d="M118.999 33.1399L117.813 30.5097C116.132 30.3742 114.563 29.6186 113.414 28.3912C112.265 27.1638 111.619 25.5535 111.604 23.8767C111.588 22.1999 112.204 20.5781 113.33 19.3299C114.456 18.0816 116.011 17.2974 117.69 17.1312C119.368 16.9651 121.048 17.4291 122.4 18.4321C123.751 19.4349 124.676 20.9043 124.994 22.5512C125.31 24.198 124.998 25.9033 124.114 27.3319C123.231 28.7605 121.842 29.809 120.221 30.2713L118.999 33.1399Z" fill="white"/>
<path d="M118.998 33.1401L120.184 30.2585L120.215 30.3052H119.954L120.215 30.2327C121.349 29.9052 122.375 29.2867 123.192 28.4395C123.437 28.1864 123.659 27.9124 123.856 27.6206C123.955 27.4677 124.06 27.3173 124.156 27.1593L124.417 26.6566C124.805 25.8392 125.021 24.9515 125.051 24.0481C125.081 23.1447 124.926 22.2447 124.593 21.4033C124.261 20.5619 123.759 19.7969 123.119 19.1554C122.479 18.5138 121.713 18.0092 120.87 17.6725C119.904 17.2846 118.86 17.1309 117.823 17.2241C116.763 17.3088 115.739 17.6437 114.836 18.2011C113.975 18.738 113.246 19.4606 112.704 20.3157C112.188 21.123 111.857 22.0333 111.735 22.9821C111.518 24.6897 111.966 26.4152 112.988 27.8045C113.43 28.3847 113.957 28.8949 114.552 29.3178C115.515 29.985 116.638 30.3889 117.807 30.4892H117.839V30.5073L118.996 33.1505L117.779 30.5333L117.805 30.5514C116.619 30.4624 115.479 30.0628 114.5 29.393C113.89 28.9678 113.35 28.4521 112.897 27.8641C111.846 26.4575 111.38 24.7031 111.594 22.964C111.717 21.9971 112.052 21.069 112.577 20.2456C113.128 19.3724 113.87 18.6336 114.747 18.0845C115.669 17.5152 116.713 17.1731 117.794 17.0868C118.852 16.9975 119.916 17.16 120.898 17.5611C121.84 17.942 122.685 18.5251 123.374 19.2687C124.021 19.9768 124.509 20.8144 124.805 21.7253C125.342 23.3674 125.229 25.1513 124.49 26.7136L124.229 27.2319C124.13 27.3925 124.023 27.5454 123.922 27.7009C123.721 27.9958 123.494 28.2723 123.244 28.5275C122.413 29.3812 121.368 30.0001 120.218 30.3207V30.2559H120.275L120.255 30.3026L118.998 33.1401Z" fill="#263238"/>
<path d="M121.228 23.573C121.229 23.1846 121.139 22.8012 120.968 22.4525C120.795 22.104 120.543 21.7996 120.234 21.5632C119.924 21.3268 119.563 21.1648 119.18 21.0897C118.797 21.0145 118.401 21.0283 118.024 21.1301C117.647 21.2318 117.299 21.4187 117.006 21.6762C116.714 21.9336 116.485 22.2547 116.338 22.6146C116.19 22.9743 116.129 23.3629 116.157 23.7504C116.186 24.1378 116.304 24.5133 116.502 24.8479C116.599 25.0111 116.721 25.1278 116.844 25.2989L118.316 27.2397C118.359 27.2961 118.414 27.3418 118.478 27.3733C118.541 27.4047 118.611 27.4212 118.682 27.4212C118.753 27.4212 118.823 27.4047 118.887 27.3733C118.951 27.3418 119.006 27.2961 119.049 27.2397L120.498 25.33C120.63 25.1753 120.752 25.0135 120.865 24.8454C121.098 24.461 121.223 24.0217 121.228 23.573ZM118.689 24.6717C118.468 24.6717 118.252 24.6065 118.068 24.4844C117.884 24.3622 117.741 24.1886 117.656 23.9855C117.571 23.7824 117.549 23.5588 117.592 23.3432C117.635 23.1275 117.742 22.9295 117.898 22.774C118.055 22.6185 118.254 22.5126 118.471 22.4697C118.688 22.4268 118.912 22.4488 119.117 22.533C119.321 22.6171 119.496 22.7596 119.618 22.9425C119.741 23.1252 119.807 23.3402 119.807 23.56C119.807 23.7065 119.778 23.8515 119.721 23.9867C119.665 24.1219 119.582 24.2446 119.478 24.348C119.373 24.4513 119.249 24.533 119.113 24.5886C118.977 24.6442 118.831 24.6724 118.684 24.6717H118.689Z" fill="#F97316"/>
<path d="M99.9813 20.8518C100.216 19.9889 100.87 19.556 101.722 19.2736C102.151 19.1327 102.607 19.0965 103.053 19.1682C103.498 19.2399 103.92 19.4174 104.282 19.6857C104.761 20.0485 105.136 20.5745 105.705 20.7715C106.64 21.0953 107.738 20.3983 108.637 20.8154C108.903 20.9415 109.118 21.1552 109.244 21.4206C109.37 21.6859 109.4 21.9864 109.329 22.2713C109.258 22.5562 109.09 22.8078 108.854 22.9836C108.617 23.1593 108.327 23.2484 108.032 23.2358C108.642 23.4586 108.832 24.3241 108.475 24.8658C108.277 25.1241 108.009 25.3206 107.702 25.4317C107.396 25.5429 107.063 25.5641 106.745 25.4929C106.111 25.3383 105.531 25.0148 105.069 24.5573C104.584 24.1245 104.151 23.6348 103.635 23.2436C103.134 22.8221 102.499 22.5899 101.842 22.5879C100.964 22.6346 100.208 23.2954 99.8172 24.078C99.4263 24.8605 99.3349 25.7571 99.2959 26.633C99.2568 27.5089 99.2308 28.3951 98.9702 29.2244C98.9389 29.3228 98.8919 29.4317 98.7929 29.4628C98.6496 29.5067 98.5323 29.3565 98.4567 29.2244C97.6543 27.7431 97.1523 26.1196 96.979 24.4459C96.8799 23.4767 96.906 22.5594 97.4402 21.7431C97.9746 20.9269 99.3298 20.3283 99.9944 20.8414" fill="#263238"/>
<path d="M98.2925 24.91L97.8416 34.7182C97.7659 36.387 97.9953 38.8644 100.654 38.8644C102.96 38.6908 103.64 36.5477 103.711 34.993C103.745 34.2544 103.773 33.6376 103.781 33.5625C103.781 33.5625 106.304 33.4407 106.599 30.9712C106.742 29.7817 106.833 27.3044 106.891 25.0655C106.921 23.902 106.509 22.7699 105.736 21.8956C104.963 21.0212 103.887 20.4689 102.723 20.3493L102.483 20.3233C99.8901 20.2016 98.3342 22.3265 98.2925 24.91Z" fill="#FFBE9D"/>
<path d="M103.778 33.5158C102.628 33.4151 101.535 32.9758 100.638 32.2539C100.638 32.2539 101.211 34.1093 103.71 34.1508L103.778 33.5158Z" fill="#EB996E"/>
<path d="M106.241 26.895C106.232 26.9869 106.187 27.0716 106.116 27.1312C106.045 27.1906 105.953 27.2203 105.861 27.2137C105.815 27.2124 105.771 27.2022 105.729 27.1835C105.688 27.1649 105.651 27.1382 105.62 27.1052C105.589 27.0722 105.566 27.0334 105.55 26.9911C105.534 26.9488 105.528 26.9037 105.53 26.8587C105.539 26.7668 105.584 26.6821 105.655 26.6226C105.726 26.5631 105.818 26.5334 105.91 26.54C105.955 26.5413 106 26.5516 106.041 26.5702C106.083 26.5889 106.12 26.6155 106.15 26.6485C106.181 26.6816 106.205 26.7203 106.221 26.7626C106.236 26.8051 106.243 26.85 106.241 26.895Z" fill="#263238"/>
<path d="M106.217 26.2135C106.168 26.2549 105.92 26.0295 105.54 25.9907C105.159 25.9517 104.859 26.1124 104.823 26.0606C104.786 26.0088 104.859 25.9596 104.99 25.8844C105.167 25.7875 105.37 25.7477 105.571 25.7703C105.765 25.793 105.947 25.8754 106.092 26.0061C106.209 26.1072 106.241 26.1954 106.217 26.2135Z" fill="#263238"/>
<path d="M102.488 26.6278C102.479 26.7197 102.434 26.8044 102.363 26.864C102.292 26.9234 102.2 26.9531 102.108 26.9465C102.062 26.9452 102.018 26.935 101.977 26.9163C101.935 26.8977 101.898 26.8711 101.867 26.838C101.837 26.805 101.813 26.7661 101.797 26.7238C101.782 26.6816 101.775 26.6365 101.777 26.5916C101.786 26.4996 101.831 26.4149 101.902 26.3554C101.973 26.2959 102.065 26.2663 102.157 26.2729C102.203 26.2742 102.247 26.2844 102.288 26.303C102.33 26.3217 102.367 26.3483 102.398 26.3813C102.428 26.4144 102.452 26.4533 102.468 26.4956C102.483 26.5379 102.49 26.5828 102.488 26.6278Z" fill="#263238"/>
<path d="M102.462 25.8868C102.412 25.9283 102.164 25.7029 101.784 25.6639C101.403 25.6251 101.104 25.7858 101.067 25.734C101.031 25.6821 101.101 25.6328 101.234 25.5578C101.411 25.4609 101.614 25.421 101.815 25.4437C102.009 25.4665 102.192 25.5489 102.336 25.6795C102.462 25.7754 102.488 25.8687 102.462 25.8868Z" fill="#263238"/>
<path d="M103.546 28.846C103.753 28.8043 103.965 28.7886 104.177 28.7994C104.276 28.7994 104.37 28.7994 104.393 28.7268C104.412 28.628 104.4 28.5258 104.359 28.4339L104.151 27.6565C103.864 26.5656 103.666 25.6716 103.71 25.6612C103.754 25.6509 104.023 26.5267 104.31 27.6176L104.505 28.3951C104.551 28.5197 104.551 28.6565 104.505 28.7811C104.487 28.8138 104.462 28.8419 104.432 28.8634C104.402 28.8849 104.367 28.8993 104.33 28.9055C104.275 28.9126 104.219 28.9126 104.164 28.9055C103.956 28.9114 103.749 28.8914 103.546 28.846Z" fill="#263238"/>
<path d="M102.722 24.4122C102.673 24.5106 102.298 24.4121 101.847 24.4277C101.396 24.4431 101.018 24.5157 100.968 24.4277C100.947 24.3811 101.02 24.2903 101.177 24.2049C101.385 24.1038 101.614 24.0513 101.845 24.0513C102.077 24.0513 102.306 24.1038 102.514 24.2049C102.668 24.2748 102.741 24.3655 102.722 24.4122Z" fill="#263238"/>
<path d="M106.195 25.1019C106.119 25.1797 105.866 25.0631 105.551 25.0267C105.236 24.9905 104.962 25.0267 104.91 24.9257C104.886 24.8791 104.938 24.7962 105.064 24.7287C105.232 24.6465 105.421 24.6161 105.607 24.6415C105.792 24.667 105.966 24.747 106.106 24.8714C106.202 24.9698 106.229 25.0631 106.195 25.1019Z" fill="#263238"/>
<path d="M98.292 26.7576C98.253 26.7342 96.6423 26.076 96.5145 27.7682C96.3869 29.4603 98.1226 29.2375 98.1305 29.1882C98.1383 29.139 98.292 26.7576 98.292 26.7576Z" fill="#FFBE9D"/>
<path d="M97.6536 28.5092C97.6536 28.5092 97.6223 28.5273 97.5702 28.548C97.4992 28.5764 97.4198 28.5764 97.3488 28.548C97.2443 28.4704 97.1624 28.3668 97.1116 28.2475C97.0608 28.1281 97.0427 27.9975 97.0594 27.8691C97.0662 27.7241 97.1054 27.5824 97.174 27.4544C97.1941 27.4027 97.2262 27.3566 97.268 27.3202C97.3097 27.2836 97.3598 27.2576 97.4138 27.2445C97.4486 27.238 97.4847 27.2437 97.5156 27.2607C97.5465 27.2777 97.5705 27.305 97.5833 27.3378C97.6015 27.387 97.5833 27.4207 97.5989 27.4233C97.6146 27.426 97.638 27.3974 97.6301 27.3274C97.6237 27.2845 97.6025 27.2452 97.5702 27.216C97.5256 27.1774 97.4676 27.1579 97.4087 27.1616C97.338 27.1702 97.2707 27.1966 97.2132 27.2383C97.1557 27.28 97.1099 27.3357 97.0802 27.4C96.9968 27.5411 96.9495 27.7004 96.9422 27.8638C96.924 28.0136 96.9501 28.1654 97.0172 28.3006C97.0843 28.4359 97.1895 28.5488 97.32 28.6257C97.3647 28.642 97.4125 28.6482 97.4599 28.6437C97.5072 28.6391 97.553 28.6242 97.5937 28.5998C97.6485 28.5506 97.6589 28.5117 97.6536 28.5092Z" fill="#EB996E"/>
<path d="M107.46 24.6041C106.896 24.6863 106.32 24.634 105.78 24.4516C105.24 24.269 104.751 23.9616 104.354 23.5546C103.804 22.982 103.418 22.2019 102.686 21.8909C102.435 21.7954 102.168 21.7503 101.899 21.7583C101.631 21.7663 101.367 21.8273 101.122 21.9376C100.634 22.161 100.197 22.4821 99.8398 22.8808C100.184 24.1766 99.712 25.55 99.2481 26.8171C99.2117 26.9629 99.1273 27.0924 99.0083 27.1851C98.792 27.3172 98.5028 27.1643 98.349 26.9648C98.1252 26.6233 98.0065 26.2244 98.0075 25.8169C97.9273 24.8941 98.0328 23.9647 98.3177 23.083C98.6064 22.198 99.1501 21.4167 99.8815 20.8363C100.823 20.1392 102.001 19.8335 103.165 19.9837C104.324 20.1421 105.403 20.6599 106.249 21.4634C106.657 21.8134 106.971 22.2585 107.163 22.759" fill="#263238"/>
<path d="M103.664 29.9214C103.612 30.0737 103.538 30.2176 103.445 30.349C103.398 30.4148 103.337 30.4699 103.267 30.5106C103.197 30.5512 103.119 30.5765 103.038 30.5848C102.952 30.5841 102.868 30.5622 102.792 30.5211C102.717 30.4799 102.653 30.4208 102.606 30.349C102.515 30.2025 102.473 30.031 102.486 29.8592C102.486 29.7038 102.564 29.5198 102.718 29.5017C102.783 29.4996 102.847 29.5139 102.905 29.5431L103.719 29.8696" fill="#EB996E"/>
<path d="M103.337 30.5825C103.191 30.5915 103.044 30.573 102.905 30.5282C102.762 30.4733 102.646 30.368 102.576 30.2327C102.54 30.151 102.522 30.0628 102.522 29.9735C102.522 29.8844 102.54 29.7961 102.576 29.7145C102.595 29.6711 102.618 29.6303 102.647 29.5926C102.678 29.559 102.673 29.5615 102.709 29.5668C102.746 29.5719 102.795 29.6005 102.84 29.6186L102.973 29.6731L103.436 29.8544C103.576 29.9212 103.726 29.9659 103.879 29.9865C103.758 29.891 103.623 29.815 103.478 29.7611L103.025 29.5512L102.894 29.4916C102.846 29.4691 102.796 29.4492 102.746 29.432C102.707 29.4191 102.665 29.4191 102.626 29.432C102.591 29.4474 102.56 29.4715 102.537 29.502C102.5 29.5488 102.47 29.6003 102.446 29.6548C102.402 29.7576 102.382 29.8688 102.386 29.9803C102.391 30.092 102.42 30.2011 102.472 30.3001C102.56 30.4604 102.708 30.5795 102.884 30.6318C102.998 30.6678 103.119 30.6724 103.236 30.6447C103.304 30.6162 103.343 30.5904 103.337 30.5825Z" fill="#263238"/>
<path d="M118.636 100.349L120.533 105.827C120.533 105.827 126.773 105.75 127.221 106.726L116.671 110.772L113.361 102.355L118.636 100.349Z" fill="#F97316"/>
<path d="M117.097 106.625C117.007 106.694 116.946 106.794 116.925 106.906C116.905 107.017 116.927 107.132 116.987 107.229C117.054 107.32 117.153 107.382 117.264 107.403C117.376 107.424 117.491 107.401 117.587 107.34C117.682 107.266 117.746 107.16 117.766 107.041C117.787 106.923 117.763 106.802 117.699 106.7C117.619 106.612 117.508 106.557 117.389 106.549C117.27 106.54 117.152 106.577 117.06 106.653" fill="#E0E0E0"/>
<g opacity="0.6">
<path opacity="0.6" d="M116.671 110.771L116.371 109.911L126.6 106.366C126.6 106.366 127.148 106.389 127.223 106.739L116.671 110.771Z" fill="white"/>
</g>
<path d="M120.684 105.708C120.704 105.76 120.455 105.882 120.265 106.143C120.076 106.405 120.023 106.662 119.968 106.662C119.914 106.662 119.874 106.335 120.112 106.022C120.349 105.708 120.68 105.656 120.684 105.708Z" fill="#263238"/>
<path d="M121.97 105.739C122.001 105.783 121.81 105.957 121.709 106.242C121.607 106.527 121.657 106.773 121.604 106.791C121.553 106.809 121.407 106.532 121.526 106.18C121.646 105.827 121.948 105.69 121.97 105.739Z" fill="#263238"/>
<path d="M123.109 106.814C123.067 106.843 122.895 106.615 122.918 106.296C122.942 105.977 123.14 105.76 123.179 105.796C123.218 105.832 123.127 106.037 123.111 106.314C123.095 106.591 123.158 106.791 123.109 106.814Z" fill="#263238"/>
<path d="M120.113 104.508C120.113 104.562 119.853 104.583 119.564 104.715C119.275 104.847 119.089 105.023 119.043 104.99C118.996 104.956 119.147 104.689 119.483 104.539C119.819 104.388 120.124 104.456 120.113 104.508Z" fill="#263238"/>
<path d="M79.9232 99.6284L79.8059 99.7813L77.5202 102.738L74.6924 104.666L78.4793 111.922H82.6493C82.6493 111.922 82.3469 110.924 80.3428 110.408L80.2098 106.426L83.8117 102.492" fill="#F97316"/>
<g opacity="0.6">
<path opacity="0.6" d="M74.6924 104.676L78.4793 111.929L82.6493 111.932L82.1803 111.31L78.7894 111.121L75.2944 104.264L74.6924 104.676Z" fill="white"/>
</g>
<path d="M80.3089 108.595C80.2776 108.636 80.0482 108.501 79.7146 108.509C79.381 108.517 79.1543 108.652 79.123 108.61C79.0917 108.569 79.3184 108.33 79.712 108.328C80.1055 108.325 80.3557 108.564 80.3089 108.595Z" fill="#263238"/>
<path d="M80.2513 107.607C80.2096 107.635 80.0246 107.392 79.691 107.327C79.3575 107.262 79.0942 107.413 79.0655 107.371C79.0368 107.33 79.0993 107.283 79.2167 107.221C79.374 107.141 79.554 107.116 79.7273 107.151C79.9005 107.186 80.0567 107.278 80.1705 107.413C80.2539 107.514 80.2696 107.597 80.2513 107.607Z" fill="#263238"/>
<path d="M80.2777 106.34C80.2309 106.363 80.0901 106.122 79.8008 106.024C79.5115 105.925 79.2509 106.024 79.2274 105.972C79.204 105.92 79.2691 105.894 79.3838 105.85C79.5381 105.798 79.7056 105.799 79.8594 105.853C80.0131 105.907 80.144 106.011 80.2309 106.148C80.2959 106.252 80.309 106.33 80.2777 106.34Z" fill="#263238"/>
<path d="M81.3953 105.358C81.3458 105.376 81.2285 105.14 80.9705 104.972C80.7125 104.803 80.4492 104.78 80.4492 104.728C80.4492 104.676 80.7594 104.609 81.0721 104.821C81.3849 105.034 81.4448 105.35 81.3953 105.358Z" fill="#263238"/>
<g opacity="0.6">
<path opacity="0.6" d="M77.5254 105.044C77.7989 105.044 78.0206 104.824 78.0206 104.552C78.0206 104.28 77.7989 104.06 77.5254 104.06C77.252 104.06 77.0303 104.28 77.0303 104.552C77.0303 104.824 77.252 105.044 77.5254 105.044Z" fill="white"/>
</g>
<path d="M93.8096 69.7786L106.703 88.5657L113.672 104.995L119.575 101.857L113.607 85.4017L104.837 68.1201L93.8096 69.7786Z" fill="#263238"/>
<path d="M88.4846 68.1201L86.3318 83.2457L77.5332 102.328L82.7743 105.357L93.9682 86.4434L100.181 68.1201H88.4846Z" fill="#263238"/>
<path d="M82.7744 105.358C82.7874 105.326 82.8031 105.296 82.8213 105.267L82.9672 105.008L83.5406 104.008L85.6673 100.341L92.725 88.2733L94.0413 86.0317L97.9115 74.4459L99.0739 71.0202L99.3919 70.0951L99.4778 69.8567C99.4864 69.8288 99.4978 69.8019 99.5117 69.7764C99.5031 69.8041 99.4917 69.8311 99.4778 69.8567L99.4048 70.1002L99.1078 71.0305L97.9897 74.4925L94.1611 86.0939L92.858 88.338L85.7663 100.385L83.585 104.034L82.9907 105.021L82.8343 105.28C82.8166 105.308 82.7966 105.334 82.7744 105.358Z" fill="#455A64"/>
<path d="M105.657 59.932L105.222 53.4406L103.569 38.1388L104.156 34.9464L97.6401 32.355L96.8582 33.9099C92.9489 34.4955 91.2991 42.1736 91.2991 42.1736L91.1636 57.7864L86.8242 68.3694L87.9501 69.3567C89.7302 70.4191 106.314 69.7506 106.314 69.7506L105.657 59.932Z" fill="#F97316"/>
<g opacity="0.3">
<path opacity="0.3" d="M88.4844 64.3083C89.6197 65.7398 90.9434 67.0131 92.4198 68.0943C93.2277 68.698 94.1868 69.2707 95.1876 69.1126C96.1884 68.9545 96.8713 68.1668 97.5046 67.4257L101.067 63.2458C101.29 63.027 101.449 62.752 101.526 62.4503C101.546 62.2488 101.511 62.0455 101.423 61.8628C101.335 61.68 101.199 61.5246 101.028 61.4137C100.687 61.1983 100.298 61.0709 99.8944 61.0431C97.3925 60.7478 94.9426 61.9838 92.4275 62.0046C91.5675 62.0046 90.1654 61.8413 89.3522 62.1212L88.4844 64.2979" fill="black"/>
</g>
<path d="M101.915 54.1223C102.56 54.7521 102.962 55.5877 103.051 56.4828C103.139 57.3777 102.907 58.275 102.397 59.0173L100.169 62.2591L96.9342 66.4467C96.7145 66.7308 96.4366 66.9651 96.1191 67.1343C95.8014 67.3035 95.4512 67.4037 95.0916 67.4283C94.7321 67.4527 94.3715 67.401 94.0336 67.2765C93.6956 67.152 93.3883 66.9574 93.1317 66.7059L78.3829 55.4077C77.9316 55.0617 77.6326 54.5554 77.5485 53.9949C77.4645 53.4346 77.602 52.8635 77.932 52.4017L83.9264 44.011C84.0941 43.7753 84.3068 43.575 84.5526 43.4213C84.7984 43.2677 85.0722 43.1638 85.3584 43.1157C85.6447 43.0676 85.9377 43.076 86.2205 43.1407C86.5034 43.2054 86.7706 43.325 87.0069 43.4927L101.915 54.1223Z" fill="#455A64"/>
<path d="M94.2762 67.3533C94.2865 67.326 94.2996 67.3 94.3153 67.2755L94.4457 67.0553C94.5629 66.8635 94.7401 66.5836 94.967 66.2287C95.4335 65.5134 96.1241 64.4898 96.979 63.2279C97.8338 61.9659 98.8633 60.468 99.9787 58.7889C100.27 58.3678 100.531 57.9271 100.761 57.4699C100.873 57.238 100.929 56.9834 100.925 56.7262C100.908 56.4667 100.81 56.2187 100.646 56.0162C100.318 55.5964 99.8249 55.3061 99.3689 54.9797L97.9589 53.9845L88.2167 47.0761L85.2847 44.9512L84.4794 44.3836L84.2735 44.2308C84.2535 44.2135 84.2352 44.1944 84.2188 44.1738C84.2454 44.1859 84.2708 44.2005 84.2944 44.2178L84.508 44.3604L85.3186 44.9174L88.2871 46.9905L98.0527 53.8679L99.4627 54.8657C99.9161 55.1999 100.414 55.4875 100.766 55.9385C100.945 56.1606 101.051 56.4319 101.071 56.7158C101.075 56.9928 101.014 57.267 100.894 57.5166C100.66 57.9803 100.393 58.4271 100.096 58.8537C98.9753 60.5302 97.9354 62.0203 97.0728 63.2771C95.3266 65.7855 94.2762 67.3533 94.2762 67.3533Z" fill="#263238"/>
<path d="M99.8739 34.4303C99.8739 34.4303 95.6857 32.2251 89.3604 42.2043L90.481 43.5C90.481 43.5 95.764 34.2671 99.2537 35.3814C102.743 36.4956 97.6196 51.0564 97.6196 51.0564C97.6196 51.0564 105.298 36.5448 99.8739 34.4303Z" fill="#263238"/>
<path d="M85.8808 45.656C85.0108 46.5281 84.4646 47.6683 84.3315 48.8896C84.1985 50.1108 84.4866 51.3407 85.1484 52.3779C85.1971 52.4504 85.2457 52.5213 85.2944 52.5904L90.9943 61.3828L95.7637 58.4598L91.1376 50.1338C91.1376 50.1338 93.2826 47.9312 95.6204 45.4539C98.7661 42.1163 102.115 38.0167 99.7174 35.6638C99.7174 35.6638 98.0806 34.3682 95.5683 36.3116C93.7464 37.6954 88.5939 42.8781 85.8808 45.656Z" fill="#F97316"/>
<path d="M115.892 39.4029L118.376 38.7888C118.376 38.7888 119.048 39.3874 118.701 40.0067C118.354 40.718 118.042 41.4463 117.768 42.1886L115.847 42.8053L115.305 44.3602L111.998 42.9583L112.887 40.0429L114.74 37.7626L116.137 37.5527L117.078 38.3431C117.078 38.3431 116.296 38.9106 115.775 38.299L115.133 38.5452L115.191 38.9287C115.203 39.0067 115.231 39.0815 115.274 39.1483C115.316 39.215 115.372 39.2723 115.438 39.3167C115.504 39.3613 115.578 39.3918 115.656 39.4066C115.734 39.4215 115.814 39.4202 115.892 39.4029Z" fill="#FFBE9D"/>
<path d="M118.36 38.8903L119.987 38.1129C120.09 38.0812 120.202 38.0755 120.308 38.0962C120.415 38.1171 120.514 38.1636 120.599 38.2322L120.68 38.4005L118.736 39.6652L118.36 38.8903Z" fill="#FFBE9D"/>
<path d="M114.946 41.4064C114.984 41.2624 115.04 41.1239 115.113 40.9943C115.269 40.6843 115.353 40.3433 115.358 39.9967C115.354 39.8099 115.305 39.6267 115.215 39.4629C115.171 39.3858 115.133 39.3052 115.103 39.2219C115.08 39.1455 115.07 39.0657 115.074 38.9861C115.063 38.8362 115.082 38.6858 115.129 38.543C115.159 38.6879 115.173 38.8356 115.17 38.9835C115.181 39.1363 115.235 39.2829 115.327 39.4058C115.433 39.5843 115.491 39.7869 115.496 39.9941C115.492 40.3595 115.391 40.7173 115.202 41.0307C115.139 41.1698 115.053 41.2971 114.946 41.4064Z" fill="#EB996E"/>
<path d="M122.296 35.5137C122.319 35.5603 122.656 36.0578 122.656 36.0578L115.248 41.4789L114.784 40.8906L122.296 35.5137Z" fill="#263238"/>
<path d="M117.732 42.08C117.762 42.0348 117.783 41.9839 117.794 41.9306C117.804 41.8772 117.803 41.8224 117.792 41.7692C117.781 41.7161 117.758 41.6658 117.727 41.6213C117.696 41.5767 117.656 41.5388 117.61 41.5098C117.415 41.4014 117.194 41.351 116.971 41.3647C116.609 41.3434 116.245 41.3633 115.887 41.4244C115.768 41.4412 115.655 41.4876 115.559 41.5592C115.511 41.5958 115.476 41.6457 115.457 41.7025C115.438 41.7593 115.438 41.8205 115.454 41.8779C115.506 42.0125 115.668 42.0644 115.811 42.093C116.196 42.1679 116.588 42.1984 116.979 42.1836" fill="#FFBE9D"/>
<path d="M116.979 42.1813C116.749 42.229 116.513 42.2378 116.281 42.2073C116.174 42.2073 116.054 42.1866 115.929 42.1683C115.786 42.1568 115.648 42.1161 115.522 42.0492C115.484 42.0255 115.451 41.9937 115.426 41.9561C115.401 41.9185 115.385 41.8759 115.379 41.8315C115.369 41.7387 115.396 41.6457 115.454 41.5723C115.574 41.4427 115.739 41.3623 115.916 41.3469C116.224 41.2969 116.537 41.2803 116.849 41.2977C117.11 41.2801 117.371 41.3319 117.604 41.448C117.683 41.4962 117.746 41.5657 117.786 41.6484C117.826 41.7309 117.842 41.8233 117.831 41.9144C117.808 42.0439 117.735 42.0854 117.732 42.0777C117.73 42.0699 117.774 42.0207 117.779 41.9092C117.779 41.8317 117.758 41.7556 117.719 41.6886C117.68 41.6217 117.623 41.5664 117.555 41.5283C117.331 41.4352 117.088 41.3987 116.846 41.4221C116.543 41.412 116.241 41.4312 115.942 41.4791C115.798 41.4892 115.664 41.5498 115.561 41.6501C115.541 41.6705 115.526 41.6949 115.517 41.722C115.508 41.7489 115.504 41.7775 115.508 41.8058C115.511 41.8341 115.52 41.8613 115.536 41.8855C115.551 41.9097 115.571 41.9302 115.595 41.9455C115.706 42.0049 115.827 42.0426 115.952 42.0569C116.075 42.0803 116.189 42.0984 116.294 42.1114C116.713 42.1658 116.979 42.1606 116.979 42.1813Z" fill="#EB996E"/>
<path d="M118.36 40.572C117.769 40.4269 117.346 40.3698 116.755 40.2247C116.567 40.1581 116.362 40.1526 116.171 40.2092C115.989 40.2869 115.874 40.5408 116.007 40.6859C116.058 40.7335 116.12 40.7688 116.187 40.7896L117.954 41.4789" fill="#FFBE9D"/>
<path d="M117.949 41.4818C117.712 41.4311 117.481 41.3583 117.258 41.2642L116.523 41.005L116.088 40.8391C116.04 40.8219 115.997 40.794 115.962 40.7576C115.927 40.7212 115.9 40.6773 115.885 40.6293C115.873 40.5795 115.872 40.5279 115.881 40.4776C115.89 40.4274 115.909 40.3793 115.937 40.3365C115.989 40.251 116.069 40.1861 116.163 40.1525C116.247 40.1241 116.336 40.1127 116.424 40.1188C116.581 40.1364 116.736 40.1676 116.888 40.2121L117.649 40.3883C117.888 40.4275 118.122 40.4944 118.345 40.5879C118.105 40.5695 117.866 40.534 117.631 40.4816C117.412 40.4427 117.149 40.3987 116.849 40.3338C116.704 40.2946 116.555 40.267 116.406 40.2509C116.336 40.2399 116.264 40.2486 116.198 40.2762C116.133 40.3036 116.077 40.3487 116.036 40.4064C115.999 40.4614 115.985 40.5282 115.997 40.593C116.007 40.6222 116.024 40.6485 116.046 40.6701C116.068 40.6916 116.095 40.7078 116.124 40.7174L116.549 40.8884L117.274 41.1863C117.508 41.2631 117.734 41.362 117.949 41.4818Z" fill="#EB996E"/>
<path d="M118.735 39.6545L117.135 39.3669C116.943 39.3122 116.739 39.3194 116.551 39.3876C116.374 39.4758 116.275 39.74 116.418 39.8748C116.473 39.9196 116.537 39.9514 116.606 39.9681L118.412 40.546" fill="#FFBE9D"/>
<path d="M118.413 40.5461C118.174 40.5104 117.939 40.4523 117.712 40.3725L116.964 40.1497L116.521 40.0123C116.472 39.9987 116.427 39.9744 116.389 39.9413C116.351 39.908 116.321 39.8668 116.302 39.8206C116.285 39.7722 116.279 39.721 116.284 39.6701C116.288 39.6193 116.303 39.5699 116.328 39.5251C116.372 39.4361 116.446 39.3647 116.536 39.323C116.618 39.2874 116.707 39.2689 116.797 39.2686C116.955 39.274 117.112 39.2949 117.266 39.3308L118.032 39.4836C118.271 39.5192 118.506 39.5774 118.733 39.6573C118.492 39.6532 118.252 39.6262 118.017 39.5769L117.235 39.4525C117.088 39.4221 116.939 39.4047 116.789 39.4007C116.718 39.395 116.647 39.4095 116.584 39.4426C116.522 39.4756 116.47 39.5258 116.435 39.5873C116.26 39.9035 116.739 39.9267 116.987 40.033L117.727 40.2922C117.963 40.3547 118.193 40.4398 118.413 40.5461Z" fill="#EB996E"/>
<path d="M115.493 44.1352L110.672 54.3762C110.447 54.8547 110.104 55.2687 109.674 55.58C109.245 55.8913 108.744 56.0896 108.217 56.1564C107.54 56.2427 106.854 56.1084 106.261 55.7738C105.668 55.4394 105.2 54.9225 104.928 54.301L101.331 46.1099L103.374 37.2734L108.196 47.5843L112.147 42.0156L115.493 44.1352Z" fill="#F97316"/>
<path d="M107.529 49.2787C107.908 48.2966 108.187 47.4896 108.152 47.4762C108.117 47.4629 107.782 48.2483 107.403 49.2305C107.024 50.2126 106.745 51.0196 106.78 51.033C106.815 51.0463 107.151 50.2609 107.529 49.2787Z" fill="#263238"/>
<path d="M105.72 59.823C105.705 59.7521 105.696 59.6802 105.691 59.6078L105.634 58.973L105.433 56.6408L104.761 48.9523C104.487 45.949 104.216 43.2333 103.997 41.2716L103.737 38.9394L103.664 38.3071C103.652 38.2343 103.646 38.1607 103.646 38.0869C103.666 38.1582 103.681 38.231 103.69 38.3046L103.789 38.9343C103.87 39.4811 103.979 40.274 104.099 41.2664C104.341 43.2281 104.62 45.9308 104.902 48.9471C105.183 51.9635 105.392 54.6714 105.532 56.6408L105.689 58.973L105.723 59.6078C105.73 59.6794 105.729 59.7516 105.72 59.823Z" fill="#263238"/>
<path d="M94.7604 59.0483L95.3885 60.3441C95.3885 60.3441 96.6343 60.4943 97.1503 60.7327C97.6663 60.9712 99.5194 62.5726 99.5194 62.5726C99.4576 62.6995 99.3534 62.8013 99.2246 62.8604C99.0957 62.9195 98.9504 62.9322 98.8132 62.8965C98.4032 62.6669 98.0111 62.407 97.6403 62.1192C97.5373 62.1358 97.4402 62.178 97.3579 62.2418C97.2756 62.3055 97.2106 62.3888 97.1692 62.484C97.1277 62.5792 97.1108 62.6832 97.1203 62.7865C97.1297 62.8898 97.1652 62.9892 97.2233 63.0753C97.5907 63.6247 98.0051 64.2673 98.0573 64.371C98.1094 64.4746 98.9199 64.8167 99.5324 65.0602C99.6117 65.0944 99.6784 65.1525 99.723 65.2261C99.7675 65.2998 99.7877 65.3855 99.7808 65.4712C99.7739 65.557 99.7402 65.6384 99.6845 65.7041C99.6288 65.7698 99.5537 65.8165 99.4699 65.8377C99.4341 65.8482 99.3962 65.8482 99.3605 65.8377C99.3605 65.8377 99.6575 66.4596 98.5785 66.2808C98.5785 66.2808 97.8644 66.7654 97.3094 66.4648C97.3094 66.4648 96.2903 66.6928 95.8394 66.5451C95.3885 66.3974 93.5172 63.775 93.5172 63.775L91.8936 60.8442L94.7604 59.0483Z" fill="#FFBE9D"/>
<path d="M96.4492 63.7461C96.4946 63.9283 96.5667 64.1028 96.6629 64.2644C96.8556 64.6859 97.1458 65.0563 97.5099 65.345C97.8945 65.5961 98.3382 65.7434 98.7974 65.7726C98.9822 65.8013 99.1703 65.8013 99.3551 65.7726C99.1783 65.7228 98.9965 65.6923 98.8131 65.6819C98.3783 65.6248 97.9617 65.4726 97.5933 65.2362C97.2485 64.9597 96.9624 64.6179 96.7514 64.2307C96.6694 64.0584 96.5679 63.8959 96.4492 63.7461Z" fill="#EB996E"/>
<path d="M95.918 64.3502C95.9338 64.5248 95.9919 64.6928 96.0874 64.84C96.1732 65.0061 96.2717 65.1655 96.3818 65.3169C96.5133 65.5116 96.6837 65.6774 96.8823 65.8041C97.0866 65.9086 97.3027 65.9885 97.526 66.0424L98.0473 66.1824C98.2078 66.2373 98.3754 66.2687 98.5451 66.2757C98.399 66.1886 98.241 66.123 98.0759 66.0813C97.93 66.0295 97.7501 65.9724 97.5547 65.9128C97.344 65.8545 97.1398 65.7755 96.9448 65.677C96.763 65.5593 96.6049 65.4091 96.4783 65.2339C96.3663 65.0908 96.2619 64.9421 96.1655 64.7882C96.0092 64.5239 95.9466 64.3451 95.918 64.3502Z" fill="#EB996E"/>
<path d="M95.3574 65.0962C95.3079 65.1299 95.6414 65.5989 96.0768 66.1327C96.1386 66.2062 96.2184 66.2624 96.3087 66.296C96.3824 66.3293 96.4581 66.3579 96.5354 66.3815C96.6646 66.4226 96.7971 66.452 96.9316 66.4696C97.1609 66.4981 97.3069 66.4696 97.3043 66.4514C97.189 66.4128 97.0703 66.385 96.9498 66.3685C96.8236 66.3375 96.6991 66.2994 96.5771 66.2546C96.5062 66.2287 96.4365 66.1993 96.3686 66.1664C96.3003 66.1399 96.2394 66.0972 96.1913 66.042C95.9725 65.7674 95.7665 65.5237 95.6154 65.3605C95.5403 65.2625 95.4536 65.1738 95.3574 65.0962Z" fill="#EB996E"/>
<path d="M102.983 34.542C102.951 34.9728 102.887 35.4007 102.791 35.8221C102.736 36.2512 102.649 36.6756 102.53 37.0919C102.511 36.6566 102.55 36.2209 102.647 35.7962C102.703 35.3651 102.816 34.9434 102.983 34.542Z" fill="#263238"/>
<path d="M100.712 34.6548C100.836 34.2659 100.907 33.9416 100.871 33.9305C100.836 33.9193 100.707 34.2255 100.583 34.6143C100.46 35.0032 100.389 35.3274 100.424 35.3386C100.46 35.3498 100.589 35.0436 100.712 34.6548Z" fill="#263238"/>
<path d="M99.8775 34.0214C100.052 33.6826 100.167 33.3943 100.134 33.3772C100.1 33.3603 99.9317 33.6211 99.757 33.9599C99.5822 34.2986 99.4676 34.587 99.5009 34.604C99.5342 34.6209 99.7028 34.3601 99.8775 34.0214Z" fill="#263238"/>
<path d="M98.1886 33.6845C98.5026 33.2746 98.733 32.924 98.7032 32.9015C98.6734 32.879 98.3947 33.193 98.0808 33.6028C97.7668 34.0126 97.5363 34.3631 97.5661 34.3858C97.5959 34.4083 97.8745 34.0943 98.1886 33.6845Z" fill="#263238"/>
<path d="M91.1639 50.2168C91.0137 50.1206 90.8693 50.0159 90.7313 49.9032C90.03 49.414 89.187 49.1664 88.3309 49.1985C88.1578 49.2176 87.9838 49.2271 87.8096 49.2269C87.9736 49.1522 88.1506 49.1101 88.3309 49.1025C89.2161 49.0152 90.1006 49.2746 90.7963 49.8255C90.9434 49.9309 91.0681 50.0638 91.1639 50.2168Z" fill="#263238"/>
<path d="M89.7646 46.9048C89.9252 47.0019 90.0674 47.1264 90.1843 47.2727C90.7943 47.9459 91.1762 48.7925 91.2762 49.6931C91.3091 49.8765 91.3091 50.0643 91.2762 50.2476C91.159 48.9986 90.6294 47.8232 89.7698 46.9048H89.7646Z" fill="#263238"/>
<path d="M95.7821 58.3976C95.7435 58.3481 95.7095 58.2952 95.6805 58.2395L95.4199 57.7757L94.4268 56.0447L91.1221 50.1909L91.0986 50.1468L91.1325 50.1106L92.1437 49.0507L97.4944 43.4819L99.1259 41.8053L99.5742 41.3545C99.6248 41.3 99.6796 41.2497 99.7384 41.2041C99.6953 41.265 99.6474 41.3222 99.595 41.3752L99.1545 41.8417L97.5544 43.5493L92.2324 49.1439L91.2186 50.2013V50.1235L94.4842 56.0006L95.4407 57.7498L95.7012 58.224C95.7335 58.2793 95.7606 58.3375 95.7821 58.3976Z" fill="#263238"/>
<g opacity="0.3">
<path opacity="0.3" d="M93.2852 47.9467L95.1461 49.2736C95.4108 49.1356 95.6413 48.9408 95.8211 48.7034C97.2199 46.7604 98.2416 44.5747 98.8339 42.2588L93.2852 47.9467Z" fill="black"/>
</g>
<path d="M95.9722 45.0343C95.9384 44.6902 95.8356 44.3562 95.6699 44.0522C95.4818 43.7291 95.2311 43.4464 94.9324 43.2204C94.5614 42.9463 94.1533 42.7257 93.7205 42.5648C93.2617 42.3807 92.8057 42.2563 92.3991 42.0931C92.03 41.9617 91.6969 41.746 91.427 41.4634C91.2461 41.2692 91.1233 41.0288 91.0725 40.769C91.0488 40.6755 91.0488 40.5775 91.0725 40.4839C91.0725 40.4839 91.0725 40.585 91.122 40.7586C91.1894 41 91.3178 41.2202 91.4947 41.3987C91.7625 41.66 92.0858 41.8583 92.4408 41.9791C92.8369 42.1321 93.3008 42.2538 93.7647 42.4404C94.2092 42.6062 94.6264 42.8367 95.0027 43.1245C95.3107 43.3649 95.5646 43.6668 95.7481 44.0107C95.8707 44.242 95.9477 44.4944 95.9748 44.7544C95.9913 44.8471 95.9905 44.942 95.9722 45.0343Z" fill="#F5F5F5"/>
<path d="M104.495 46.1898C104.379 46.1899 104.263 46.182 104.148 46.1664C103.834 46.1439 103.518 46.1439 103.204 46.1664C102.806 46.1949 102.337 46.2623 101.813 46.3426C101.243 46.4403 100.667 46.4959 100.09 46.5085C99.5034 46.5233 98.9206 46.4101 98.3828 46.1768C97.9466 45.9735 97.5725 45.6587 97.2987 45.2647C97.1137 45 96.9981 44.6936 96.9624 44.3732C96.9539 44.2871 96.9539 44.2002 96.9624 44.1141C96.9624 44.0545 96.9624 44.0234 96.9781 44.026C96.9937 44.0285 96.9781 44.1504 97.0146 44.368C97.0685 44.6736 97.1924 44.9627 97.3768 45.2129C97.6502 45.5832 98.0145 45.8776 98.435 46.068C98.9584 46.2862 99.5226 46.3913 100.09 46.3764C100.662 46.364 101.232 46.3129 101.797 46.2234C102.318 46.1509 102.798 46.0912 103.202 46.0757C103.52 46.0589 103.84 46.0711 104.156 46.112C104.272 46.1227 104.386 46.1489 104.495 46.1898Z" fill="#F5F5F5"/>
<path d="M106.244 43.7748C106.048 44.1272 105.779 44.4335 105.454 44.6731C105.129 44.9128 104.755 45.0801 104.36 45.1638C104.347 45.1249 104.852 44.9513 105.373 44.5652C105.895 44.1791 106.21 43.7515 106.244 43.7748Z" fill="#F5F5F5"/>
<path d="M106.986 45.521C106.715 45.9552 106.359 46.3311 105.94 46.6266C105.52 46.9222 105.046 47.1313 104.544 47.2416C104.995 47.0245 105.431 46.7787 105.85 46.5058C106.249 46.2023 106.629 45.8733 106.986 45.521Z" fill="#F5F5F5"/>
<path d="M104.834 49.0976C104.366 48.8418 103.851 48.6822 103.32 48.6286C102.741 48.583 102.16 48.583 101.581 48.6286C100.866 48.6885 100.148 48.6843 99.4336 48.6156C98.1321 48.4729 96.8736 48.0673 95.7354 47.4237C95.3929 47.2286 95.0638 47.0113 94.7502 46.7732C94.6329 46.6885 94.523 46.594 94.4219 46.4907C94.5479 46.5615 94.6681 46.642 94.7815 46.7318C95.1046 46.9514 95.4386 47.1546 95.7824 47.3407C96.9195 47.9522 98.1644 48.3403 99.4493 48.4835C100.156 48.5513 100.868 48.559 101.576 48.5067C102.16 48.4654 102.747 48.474 103.33 48.5327C103.726 48.5774 104.111 48.6887 104.469 48.8618C104.566 48.908 104.658 48.9627 104.745 49.025C104.808 49.0639 104.836 49.0976 104.834 49.0976Z" fill="#F5F5F5"/>
<path d="M94.9035 45.9207C94.8948 45.9828 94.8763 46.0432 94.8489 46.0995L94.8305 46.1487L94.8097 46.0995C94.6308 45.7286 94.3352 45.4258 93.9678 45.2367C93.6845 45.0852 93.3846 44.967 93.074 44.8842C92.7377 44.7857 92.365 44.7003 91.9897 44.5629C91.1899 44.2721 90.479 43.7813 89.9256 43.1376C89.7588 42.9448 89.6096 42.7376 89.4799 42.5183C89.4266 42.4383 89.3852 42.351 89.3574 42.2591C89.3783 42.2463 89.5659 42.5986 89.996 43.0677C90.5564 43.6788 91.2562 44.1472 92.0367 44.4334C92.4041 44.5655 92.7716 44.6535 93.113 44.7572C93.4317 44.8463 93.7381 44.9743 94.0252 45.1381C94.4061 45.3419 94.6997 45.6761 94.8514 46.0788H94.8123C94.8345 46.0219 94.8653 45.9685 94.9035 45.9207Z" fill="#F5F5F5"/>
</g>
</g>
<defs>
<clipPath id="clip0_30_585">
<rect width="145" height="112" fill="white"/>
</clipPath>
</defs>
</svg>